<?xml version="1.0" encoding="utf-8"?>
<!-- Generator: Adobe Illustrator 18.1.1, SVG Export Plug-In . SVG Version: 6.00 Build 0)  -->
<!DOCTYPE svg PUBLIC "-//W3C//DTD SVG 1.1//EN" "http://www.w3.org/Graphics/SVG/1.1/DTD/svg11.dtd">
<svg version="1.1" id="Capa_1" xmlns="http://www.w3.org/2000/svg" xmlns:xlink="http://www.w3.org/1999/xlink" x="0px" y="0px"
	 width="792px" height="792px" viewBox="-215 0 792 792" enable-background="new -215 0 792 792" xml:space="preserve">
<path fill="#FFFFFF" d="M577,396C577,177.3,399.7,0,181,0s-396,177.3-396,396s177.3,396,396,396S577,614.7,577,396z M-65.9,494.4
	c0,0,304.4-100.8,305.3-100.8c0-126.7,85.3-219.4,213.4-219.4c0,27.7,0,55.4,0,83c-168.9,0-153.4,249,0,249c0,0,0,82,0,83
	c-96.3,0-150.2-57.3-157.1-62.2c0,1,22.6,56.3,23.7,59.3h-97.8l-32.6-83H20c-6,17.9-26.7,73.1-29.6,83c-95.6,0-95.6,0-95.6,0
	L-65.9,494.4z M224.5,363.9l-83,14.8l-35.6-91.9L61.5,393.4c0,0-79.3,14.8-94.9,17.9l97.7-231.1c27.7,0,55.4,0,83,0L224.5,363.9z"/>
<path fill="#FFFFFF" d="M284.1-394.6c0,0,304.4-100.8,305.3-100.8c0-126.7,85.3-219.4,213.4-219.4c0,27.7,0,55.4,0,83
	c-168.9,0-153.4,249,0,249c0,0,0,82,0,83c-96.3,0-150.2-57.3-157.1-62.2c0,1,22.6,56.3,23.7,59.3h-97.8l-32.6-83H370
	c-6,17.9-26.7,73.1-29.6,83c-95.6,0-95.6,0-95.6,0L284.1-394.6z"/>
<path fill="#FFFFFF" d="M574.5-525.1l-83,14.8l-35.6-91.9l-44.4,106.6c0,0-79.3,14.8-94.9,17.9l97.7-231.1c27.7,0,55.4,0,83,0
	L574.5-525.1z"/>
</svg>
