<?xml version="1.0" encoding="utf-8"?>
<!-- Generator: Adobe Illustrator 18.1.1, SVG Export Plug-In . SVG Version: 6.00 Build 0)  -->
<svg version="1.1" id="Capa_1" xmlns="http://www.w3.org/2000/svg" xmlns:xlink="http://www.w3.org/1999/xlink" x="0px" y="0px"
	 viewBox="0 90 612 612" enable-background="new 0 90 612 612" xml:space="preserve">
<path d="M612,396c0-169-137-306-306-306S0,227,0,396s137,306,306,306S612,565,612,396z M27.8,396c0-153.6,124.5-278.2,278.2-278.2
	S584.2,242.4,584.2,396S459.6,674.2,306,674.2S27.8,549.6,27.8,396z M115.2,472c0,0,235.2-77.9,235.9-77.9
	c0-97.9,65.9-169.5,164.9-169.5c0,21.4,0,42.8,0,64.1c-130.5,0-118.5,192.4,0,192.4c0,0,0,63.4,0,64.1
	c-74.4,0-116.1-44.3-121.4-48.1c0,0.8,17.5,43.5,18.3,45.8h-75.6l-25.2-64.1H181.6c-4.6,13.8-20.6,56.5-22.9,64.1
	c-73.9,0-73.9,0-73.9,0L115.2,472z M339.6,371.2l-64.1,11.4l-27.5-71L213.7,394c0,0-61.3,11.4-73.3,13.8l75.5-178.6
	c21.4,0,42.8,0,64.1,0L339.6,371.2z"/>
</svg>
