<svg xmlns="http://www.w3.org/2000/svg" width="792" height="792" viewBox="-215 0 792 792" enable-background="new -215 0 792 792"><path fill="#fff" d="M577 396c0-218.7-177.3-396-396-396s-396 177.3-396 396 177.3 396 396 396 396-177.3 396-396zm-642.9 98.4s304.4-100.8 305.3-100.8c0-126.7 85.3-219.4 213.4-219.4v83c-168.9 0-153.4 249 0 249v83c-96.3 0-150.2-57.3-157.1-62.2 0 1 22.6 56.3 23.7 59.3h-97.8l-32.6-83h-169c-6 17.9-26.7 73.1-29.6 83h-95.6l39.3-91.9zm290.4-130.5l-83 14.8-35.6-91.9-44.4 106.6s-79.3 14.8-94.9 17.9l97.7-231.1h83l77.2 183.7zM284.1-394.6s304.4-100.8 305.3-100.8c0-126.7 85.3-219.4 213.4-219.4v83c-168.9 0-153.4 249 0 249v83c-96.3 0-150.2-57.3-157.1-62.2 0 1 22.6 56.3 23.7 59.3h-97.8l-32.6-83h-169c-6 17.9-26.7 73.1-29.6 83h-95.6l39.3-91.9zM574.5-525.1l-83 14.8-35.6-91.9-44.4 106.6s-79.3 14.8-94.9 17.9l97.7-231.1h83l77.2 183.7z"/></svg>