<?xml version="1.0" encoding="utf-8"?>
<!-- Generator: Adobe Illustrator 18.1.1, SVG Export Plug-In . SVG Version: 6.00 Build 0)  -->
<!DOCTYPE svg PUBLIC "-//W3C//DTD SVG 1.1//EN" "http://www.w3.org/Graphics/SVG/1.1/DTD/svg11.dtd">
<svg version="1.1" id="Capa_1" xmlns="http://www.w3.org/2000/svg" xmlns:xlink="http://www.w3.org/1999/xlink" x="0px" y="0px"
	 width="792px" height="792px" viewBox="-215 0 792 792" enable-background="new -215 0 792 792" xml:space="preserve">
<g>
</g>
<g>
	<path fill="#FFFFFF" d="M333.8,363c4.3,13.9,6.5,28.6,6.5,43.9c0,85-71.1,153.9-158.8,153.9c-87.7,0-158.8-68.9-158.8-153.9
		c0-15.2,2.3-30,6.5-43.9h-46.9v215.9c0,11.2,9.1,20.3,20.3,20.3h355.8c11.2,0,20.3-9.1,20.3-20.3V363h0H333.8z"/>
	<path fill="#FFFFFF" d="M297.7,304.8h57.8c12.6,0,23-10.4,23-23v-55.1c0-12.6-10.4-23-23-23h-57.8c-12.6,0-23,10.4-23,23v55.1
		C274.7,294.4,285.1,304.8,297.7,304.8z"/>
	<path fill="#FFFFFF" d="M181.5,500.8c56.7,0,102.6-44.5,102.6-99.4c0-54.9-45.9-99.4-102.6-99.4c-56.7,0-102.6,44.5-102.6,99.4
		C78.9,456.2,124.8,500.8,181.5,500.8z"/>
	<path fill="#FFFFFF" d="M181,0C-37.7,0-215,177.3-215,396s177.3,396,396,396s396-177.3,396-396S399.7,0,181,0z M436.5,592.3
		c0,36.1-29.5,65.6-65.6,65.6H-8.9c-36.1,0-65.6-29.5-65.6-65.6V212.5c0-36.1,29.5-65.6,65.6-65.6h379.8c36.1,0,65.6,29.5,65.6,65.6
		V592.3z"/>
</g>
</svg>
