<svg xmlns="http://www.w3.org/2000/svg" width="792" height="792" viewBox="-215 0 792 792" enable-background="new -215 0 792 792"><g fill="#fff"><path d="M333.8 363c4.3 13.9 6.5 28.6 6.5 43.9 0 85-71.1 153.9-158.8 153.9-87.7 0-158.8-68.9-158.8-153.9 0-15.2 2.3-30 6.5-43.9h-46.9v215.9c0 11.2 9.1 20.3 20.3 20.3h355.8c11.2 0 20.3-9.1 20.3-20.3v-215.9h-44.9zM297.7 304.8h57.8c12.6 0 23-10.4 23-23v-55.1c0-12.6-10.4-23-23-23h-57.8c-12.6 0-23 10.4-23 23v55.1c0 12.6 10.4 23 23 23zM181.5 500.8c56.7 0 102.6-44.5 102.6-99.4 0-54.9-45.9-99.4-102.6-99.4-56.7 0-102.6 44.5-102.6 99.4 0 54.8 45.9 99.4 102.6 99.4zM181 0c-218.7 0-396 177.3-396 396s177.3 396 396 396 396-177.3 396-396-177.3-396-396-396zm255.5 592.3c0 36.1-29.5 65.6-65.6 65.6h-379.8c-36.1 0-65.6-29.5-65.6-65.6v-379.8c0-36.1 29.5-65.6 65.6-65.6h379.8c36.1 0 65.6 29.5 65.6 65.6v379.8z"/></g></svg>