<?xml version="1.0" encoding="utf-8"?>
<!-- Generator: Adobe Illustrator 18.1.0, SVG Export Plug-In . SVG Version: 6.00 Build 0)  -->
<!DOCTYPE svg PUBLIC "-//W3C//DTD SVG 1.1//EN" "http://www.w3.org/Graphics/SVG/1.1/DTD/svg11.dtd">
<svg version="1.1" id="Layer_1" xmlns="http://www.w3.org/2000/svg" xmlns:xlink="http://www.w3.org/1999/xlink" x="0px" y="0px"
	 width="626.1px" height="395.7px" viewBox="0 0 626.1 395.7" enable-background="new 0 0 626.1 395.7" xml:space="preserve">
<g>
	<path fill="#FFFFFF" d="M415.4,23.9l42.2,42.7h9.7l89,90h-24l31.8,31.7l-28.8,29.3h22c0,0-16.3,19.3-31.7,19.3
		c-15.3,0-25,2.3-49-21.7s-43.5-43.5-43.5-43.5l-11.5,11.5l-24.8-24.7l-58.8,59h20.3l-39.2,39.2l-85.2-85.2l-11.8,11.8l-25.5-25.2
		l-60.2,60.4h22.8c0,0-18,20.3-43.7,18.3s-48.3-32.7-48.3-32.7l-15.8-15.8L216.1,24l42.3,42.6h8.8l51,51L415.4,23.9z"/>
	<path fill="#FE00FF" d="M423.6,33.3l4.7-4.5l4.8,4.7l13.2-13.2l46.4,46.3h8.7l89.3,89h-23.3l28.3,28.5l-32.3,32.5h23
		c0,0-6.3,9-23.3,14.7c0,0-7,2.2-21.3,1.2c0,0,15-10.8,16.3-14.8h-23.7l28.7-28.8l-31-31.2h23.3l-90-90h-9L423.6,33.3z"/>
	<polygon fill="#FE00FF" points="394.6,157.8 408.1,171.4 362.1,217.6 385.3,217.6 350.1,252.8 336.6,239.2 358.1,217.6 
		335.3,217.6 	"/>
	<polygon fill="#FE00FF" points="224.6,33.2 228.3,29.6 232.6,33.9 246.8,19.7 293.8,66.6 303.3,66.6 337.1,100.4 318.4,119.1 
		265.9,66.6 257.3,66.6 	"/>
	<path fill="#FE00FF" d="M135.6,217.4l59.3-59.4l14,14.1l-45.3,45.5h22.7c0,0-7.7,9-22,13c-14.3,4-22.7,1.7-22.7,1.7l14.5-14.5
		L135.6,217.4z"/>
	<polygon fill="#FFFF00" points="83.3,156.6 59.3,156.6 27.6,188.4 56.6,217.6 81.3,217.6 51.3,187.6 	"/>
	<polygon fill="#FFFF00" points="221.3,183.5 233.9,170.8 279.8,216.6 254.3,216.6 	"/>
	<polygon fill="#FFFF00" points="420.6,182.9 432.4,171 479.1,217.6 453.3,217.6 	"/>
	<polygon fill="#FFFF00" points="414.3,24.9 408.9,19.6 362.9,65.6 372.3,65.6 	"/>
	<polygon fill="#FFFF00" points="216.9,24.3 212.6,19.9 165.9,66.6 174.3,66.6 	"/>
	
		<rect x="215.8" y="24.3" transform="matrix(-0.7071 -0.7071 0.7071 -0.7071 359.6709 202.0313)" fill="#0000FF" width="11.8" height="4.5"/>
	<polygon fill="#0000FF" points="248.3,19.9 252.1,16 301.8,65.6 293.3,65.6 	"/>
	<polygon fill="#0000FF" points="414.6,23.6 418.6,19.6 428.8,29.8 424.3,34.3 	"/>
	<polygon fill="#0000FF" points="447.4,20.2 451.8,15.8 502.8,66.6 492.3,66.6 	"/>
	<polygon fill="#0000FF" points="591.1,156.9 619.7,185.5 587.4,217.6 563.3,217.6 595.6,185.3 567.4,157.1 	"/>
	<polygon fill="#0000FF" points="408.6,171.6 421.6,184.6 385.9,218.6 362.6,216.9 	"/>
	<polygon fill="#0000FF" points="163.9,217.6 209.3,172.9 220.9,183.6 187.6,217.9 	"/>
	<polygon fill="#FF0E00" points="228.9,28.6 233.9,33.9 248.3,19.9 242.6,15.3 	"/>
	<polygon fill="#FF0E00" points="428.6,28.9 442.3,15.6 447.4,20.2 433.6,33.3 	"/>
	<polygon fill="#FFFFFF" stroke="#FFFFFF" stroke-width="5" stroke-miterlimit="10" points="59.8,295.5 74.3,294 87.1,328.8 
		101.8,297.1 116.5,297.1 124.3,345.1 128,345.1 128.3,355.1 113.3,355.1 105.3,324.2 97,345.1 99.3,345.1 91.3,357.1 87.3,357.1 
		76.3,333.4 75.3,335.7 69.8,324.9 66.5,345.1 69.3,345.1 66,356.1 52.3,356.1 54.8,344.1 51.3,344.1 	"/>
	<path fill="#FFFFFF" stroke="#FFFFFF" stroke-width="5" stroke-miterlimit="10" d="M152.8,297.1h18.5l0.2,38.5
		c0,0,1.8,11.9,20.2,6.4l-1.5-0.9c0,0,3.2-1.3,3.5-10.8s0-33.1,0-33.1h14.5l0.2,44h3.5c0,0-9.4,13.5-30.1,13.5s-26.1-16.2-26.1-16.2
		v-2.2h-3V297.1z"/>
	<polygon fill="#FFFFFF" stroke="#FFFFFF" stroke-width="5" stroke-miterlimit="10" points="237.8,296.1 251.8,296.1 251.8,346.1 
		274.8,346.1 274.8,356.1 239.8,356.1 239.8,344.1 237.8,344.1 	"/>
	<polygon fill="#FFFFFF" stroke="#FFFFFF" stroke-width="5" stroke-miterlimit="10" points="288.8,297.1 329.8,297.1 329.8,310.1 
		316.8,310.1 316.8,344.1 319.8,344.1 319.8,349.1 318.8,349.1 318.8,355.1 304.8,355.1 304.8,309.1 288.8,309.1 	"/>
	<polygon fill="#FFFFFF" stroke="#FFFFFF" stroke-width="5" stroke-miterlimit="10" points="361.3,297.1 372.8,297.1 372.8,344.1 
		377.8,344.1 377.8,354.1 360.8,354.1 360.8,343.1 360.3,343.1 	"/>
	<path fill="#FFFFFF" stroke="#FFFFFF" stroke-width="4" stroke-miterlimit="10" d="M454.5,311.7c-1.8-17-20.2-14.1-20.2-14.1h-31
		v45h3v14h17v-12h-5v-4h11v-9h14.1C443.4,331.6,456.3,328.7,454.5,311.7z M434.8,314.9c-1.8,9-15.5,5.8-15.5,5.8v-14l4.8-0.2
		C424,306.4,436.5,305.9,434.8,314.9z"/>
	<polygon fill="#FFFFFF" stroke="#FFFFFF" stroke-width="5" stroke-miterlimit="10" points="482.8,297.1 493.8,297.1 493.8,346.1 
		516.8,346.1 516.8,356.1 482.8,356.1 482.8,342.6 482.8,342.6 	"/>
	<polygon fill="#FFFFFF" stroke="#FFFFFF" stroke-width="5" stroke-miterlimit="10" points="546.3,293.6 557.5,309.4 569.9,293 
		590.2,292.7 567.5,325.4 565.7,339.9 565.8,340.4 565.8,355.1 550.8,355.1 550.8,324.6 530.3,293.1 	"/>
	<g id="SUPkMu.tif">
		<g>
			<path fill="#FDFEFD" d="M51.1,360.5 M431.9,309.4c-0.6,0-1.2-0.1-1.7-0.1c-2.5-0.3-5-0.6-7.7-1c0,5.5,0,10.2,0,14.9
				c9.8,0.9,12.1-0.3,12.9-6.6c-0.1-1.3-0.1-2.6-0.2-3.9c0.7-1,2.1-2.4,1.9-2.9c-0.8-1.8-2.3-3.3-3.5-4.9c-0.4,0.2-0.8,0.5-1.1,0.7
				C432.3,306.8,432.1,308.1,431.9,309.4z M329.6,343.4c-0.1-0.3-0.3-0.6-0.4-0.9c0-9.9,0.1-19.9,0-29.8c0-1-1.1-2-1.7-3
				c-2.5,0-4.9,0-8,0c0,9.2-0.1,18.1,0,27c0,2.5-1.4,6,3.2,6.3c0.3,0,0.4,2.3,0.5,3.5c-0.9,2.3-1.8,4.5-2.9,7.2c-1.8,0-3.9,0-6.1,0
				c-2.3,0-4.5,0-7.4,0c0.6,1.7,0.9,3.2,1.2,3.2c4.6,0.2,9.3,0.6,13.8,0c0.9-0.1,1.2-4.3,1.8-6.6c1.5,0,3,0.3,4.4,0
				c1.1-0.2,3-1.1,3-1.5C330.9,347,330.1,345.2,329.6,343.4z M432.1,343.6c-2.2-7-2.2-7-10.4-5.5c0.7,1.5,1.2,4,2,4.1
				c3.3,0.3,2.5,2.3,2.3,4.2c-0.9,2.2-1.9,4.4-2.9,6.8c-12.5,2-12.5,2-12.3,3.9c4.7,0,9.5,0,13.9,0c0.6-2.5,1-4.7,1.5-6.9
				c2.2,0,4.5,0,7.6,0C433.2,347.8,432.6,345.7,432.1,343.6z M130.3,350.5c2.6,0,5.1,0,8.3,0c-0.6-2.2-1-3.6-1.4-5.1
				c-0.4-1-0.9-2-1.3-3c-1.6-10.1-3.2-20.2-4.8-30.3c-1.4-9.2-2.8-18.5-4.2-27.7c-4.5,0-8.3-0.3-12.1,0.2c-1.3,0.1-2.4,2-3.6,3.1
				c-1.6,2.2-3.1,4.4-4.9,6.8c1.8,0,4.5,0.1,7.2,0c3-0.2,4.3,0.5,4.8,3.9c1.7,12.7,3.7,25.4,5.8,38.1c0.3,2.1,1.3,5.5,2.4,5.7
				c3.1,0.5,2.4,2.6,2.8,4.3c-0.3,2.3-0.6,4.5-0.9,7.3c-2.6,0-5.2,0-7.8,0c-5.2,0-5.2,0-5,3.5c4.8,0,9.5,0,14.4,0
				C130.1,354.8,130.2,352.7,130.3,350.5z M379.3,350.4c2.3,0,4.5,0,7.5,0c-0.6-2.7-1.1-4.7-1.6-6.8c-0.4-0.4-0.7-0.7-1.1-1.1
				c0-19.3,0-38.5,0-58c-4.4,0-8.4,0.1-12.3,0c-2.8-0.1-3.1,1.2-2.5,3.3c-1.3,1.7-2.7,3.4-4.8,6c4,0.5,7.2,0.9,10.7,1.4
				c0,15.8,0,31.2,0,46.7c0.5-0.1,1-0.3,1.5-0.4c0.8,1.7,1.6,3.4,2.4,5.1c-0.9,2.2-1.9,4.4-2.9,6.8c-12.5,1.9-12.5,1.9-12.4,3.9
				c4.8,0,9.5,0,13.9,0C378.3,354.7,378.8,352.6,379.3,350.4z M70.1,350.4c6.9,0.3,7,0.2,7-6.5c0-1.1-0.1-2.3-0.2-3.4
				c-2-5.5-4-10.9-6-16.4c-0.3,0-0.5,0.1-0.8,0.1c-0.9,5.9-1.8,11.8-2.6,17.7c0.5-0.1,1-0.2,1.6-0.3c0.7,1.7,1.4,3.3,2.2,5
				c-0.2,0.2-0.3,0.4-0.5,0.5c-5.1-0.4-1.8,4.9-5.1,6.7c-1.8,0-4.4-0.1-7,0c-2.2,0.1-5.7-1.2-5.2,3.8c2,0,3.8,0,5.5,0
				C67.4,357.6,67.4,357.6,70.1,350.4z M596.2,287.7c0.2-1,0.4-2.1,0.6-3.2c-4.3,0-8.5-0.3-12.6,0.1c-2.1,0.2-4.1,1.9-6.1,2.8
				c-2.1,1.8-4.2,3.6-6.2,5.5c0.2,0.4,0.5,0.7,0.7,1.1c5.9,0.3,11.8,0.5,18.6,0.8C592.3,293.2,594.3,290.4,596.2,287.7z
				 M520.4,350.4c2.3,0,4.5,0,7.5,0c-0.6-2.6-1.1-4.7-1.6-6.8c-0.4-0.4-0.7-0.7-1.1-1.1c0-2.9,0-5.9,0-9.2c-6.4,0-12.5,0-19,0
				c0-16.5,0-32.5,0-48.9c-4.7,0-9,0.1-13.3,0c-3-0.1-2.7,1.6-2.4,3.5c-1.3,1.8-2.6,3.6-4.5,6.1c3.9,0.3,7.1,0.6,10.6,1
				c0,15.9,0,31.5,0,48.5c7,0,13.6,0,20.1,0c2.1,0,4.2-0.2,3.4,3c-0.9,2.2-1.9,4.4-3.2,7.6c-10.4,0-21.5,0-33.1,0
				c2.4,3.7,24.7,4.9,35,2.9C519.4,354.7,519.9,352.6,520.4,350.4z M278.2,350.4c2.3,0,4.5,0,7.5,0c-0.6-2.6-1.1-4.7-1.6-6.8
				c-0.4-0.4-0.7-0.7-1.1-1.1c0-2.9,0-5.9,0-9.2c-6.4,0-12.5,0-19,0c0-16.5,0-32.6,0-48.9c-4.7,0-9,0.1-13.3,0
				c-3-0.1-2.7,1.6-2.4,3.5c-1.4,1.8-2.7,3.5-4.7,6.1c4.1,0.4,7.3,0.6,10.9,1c0,15.9,0,31.5,0,48.6c7,0,13.6,0,20.1,0
				c2.1,0,4.2-0.2,3.4,3c-0.9,2.2-1.9,4.4-3.2,7.6c-10.4,0-21.5,0-33.1,0c2.4,3.7,24.7,4.9,35,2.9
				C277.2,354.7,277.7,352.6,278.2,350.4z M570.8,346.8c-0.5,1.1-1.1,2.1-1.8,3.5c3.2,0,5.6,0,8.8,0c-0.6-2.5-1.1-4.6-1.6-6.7
				c-0.3-1.7-0.8-3.4-0.8-5.2c-0.1-6.9,0-13.8,0-21.4c-8.9,7.2-10.2,15.5-8.5,24.8c0.4-0.2,0.9-0.4,1.3-0.6
				C569.1,343.1,569.9,344.9,570.8,346.8z M539.4,287.7c-1.4,1.7-2.7,3.5-4.5,5.8c2.5,0.3,4.1,0.9,5.6,0.7c4.4-0.7,7.1,1.2,9.2,4.9
				c2.3,4,5.2,7.7,8,11.8c2.3-3.5,4.4-6.7,6.5-10c0.3-0.8,1.2-2,0.9-2.4c-2.5-3.9-5.1-7.7-8-11.4c-1-1.2-2.8-2.5-4.3-2.6
				c-4.7-0.3-9.4-0.1-14.2-0.1C539,285.8,539.2,286.8,539.4,287.7z M300.3,287.7c-1.7,1.8-3.3,3.6-6,6.5c13.6,0,26,0,38.8,0
				c0,3.5,0,6.1,0,8.6c2.9-1.9,5.5-3.7,8.1-5.5c0.5-4.2,1-8.3,1.6-12.9c-14,0-26.9,0.1-39.9-0.1
				C300.2,284.4,299.8,285.5,300.3,287.7z M93.3,313.5c0.3-1.5,1.2-3.3,0.7-4.6c-3-8.1-6.2-16.2-9.5-24.5c-3.7,0-7.5-0.3-11.3,0.1
				c-1.4,0.2-2.6,2-3.9,3.1c-1.5,1.8-3,3.6-4.9,5.8c1.7,0.4,3.5,1.2,5,1c5-0.9,6.9,1.8,8.4,6c3.1,8.7,6.5,17.3,10.3,27.4
				C90.1,322,91.7,317.8,93.3,313.5z M216.3,329.5c0.2-0.2,0.7-0.4,0.7-0.6c0-14.7,0-29.4,0-44.5c-4.3,0-8.3,0.1-12.2,0
				c-2.8-0.1-3,1.2-2.5,3.3c-1.7,1.8-3.3,3.6-5.9,6.4c4.5,0.3,8,0.5,11.5,0.7c0,16,0,31.7,0,47.5c0.8,0.1,1.6,0.3,2.4,0.4
				c-1.4,1.2-3,2.1-4.1,3.5c-6.1,7.1-14,9.8-23,9.3c-5.5-0.3-11-1.4-16.4-2.1c6.9,6.7,24.3,6.7,31.5,2.7c5.8-3.2,11-7.1,13.8-13.5
				C213.4,338.2,214.8,333.9,216.3,329.5z M416.3,287.7c-1.3,1.8-2.6,3.6-4.5,6.2c2.6,0.2,4.3,0.5,6,0.6c6.3,0.3,12.6,0.4,18.9,1
				c8.4,0.9,13.9,5.4,15.6,13.7c1,5.1,0.6,10.5,0.9,16.3c5-3.8,7.3-9,8.3-14.9c4-11.4-3.1-24-14.9-25.2c-9.2-0.9-18.5-0.7-27.7-1
				C416.1,284.3,415.8,285.6,416.3,287.7z M164.3,287.7c-1.6,1.8-3.2,3.5-5.3,6c4,0.5,7.4,0.9,11.2,1.4c0,11.4,0,22.5,0,33.7
				c0,11.3,0.1,11.8,10.2,15.1c3.1,1,6.7,0.2,8.6,0.2c0.5-2.9,0.8-4.5,1.2-6.2c0.4-1,0.8-1.9,1.2-3c-8.8-0.7-11.7-4.1-12-13.1
				c-0.3-12.3-0.1-24.6-0.1-37.2c-4.6,0-8.7-0.2-12.8,0.1C165.6,284.7,164.9,286.6,164.3,287.7z M303.6,308.7c0,11.5,0,22.2,0,32.9
				c0.3,0,0.7,0,1-0.1c0-11.9,0-23.8,0-35.8c-1.4-0.1-2.6-0.3-3.7-0.3c-9.1-0.2-9.1-0.1-9.8-8.8c0-0.2-0.4-0.4-0.8-0.7
				c0,4.2,0,8.3,0,12.8C294.6,308.7,298.5,308.7,303.6,308.7z M549.8,326.7c0.4-5.5-17.2-30.4-21.9-30.9
				C535.3,306.2,542.4,316.3,549.8,326.7z M480.5,341.2c0.3,0,0.6,0,1-0.1c0-15.1,0-30.2,0-45.3c-0.3,0-0.6,0-1,0
				C480.5,310.9,480.5,326,480.5,341.2z M239.6,295.8c-0.3,0-0.6,0-1-0.1c0,15.1,0,30.2,0,45.3c0.3,0,0.6,0,1,0
				C239.6,326,239.6,310.9,239.6,295.8z M105.6,323.4c-2.8,6.7-5.2,12.6-7.7,18.6C103.7,342.4,107.7,332.6,105.6,323.4z
				 M102.1,345.2c-2.6,1.4-4.9,2.2-6.7,3.6c-2.3,1.9-4.1,4.4-6.8,7.4c0.5,2,3.5,2.5,5.3,0.5C97.1,353.6,99.2,349.5,102.1,345.2z
				 M155.6,340.7c0-14.7,0-29.6,0-44.5C152.8,311.9,153.8,339,155.6,340.7z M359.9,296c-0.2,0-0.4,0-0.5,0c0,15,0,30,0,45
				c0.2,0,0.4,0,0.5,0C359.9,326,359.9,311,359.9,296z M406.3,340.8c0.2,0,0.4,0,0.6,0c0-14.9,0-29.8,0-44.7c-0.2,0-0.4,0-0.6,0
				C406.3,311,406.3,325.9,406.3,340.8z M561.3,358.3c3-0.8,5.5-1.5,8-2.2c-2.6-0.6-5.1-1.5-7.7-1.6c-2.4-0.1-4.8,0.8-7.2,1.2
				C556.7,356.6,559,357.5,561.3,358.3z M192.4,332.5c0.2,0,0.3,0,0.5,0c0-12.2,0-24.3,0-36.5c-0.2,0-0.3,0-0.5,0
				C192.4,308.2,192.4,320.4,192.4,332.5z M445.2,332.9c-0.1-0.4-0.3-0.8-0.4-1.2c-3.7,0.6-7.4,1.1-11,1.8c-0.6,0.1-1.1,0.9-1.6,1.4
				c0.7,0.5,1.5,1.6,1.9,1.5C437.9,335.4,441.6,334.1,445.2,332.9z"/>
			<path fill="#11FBFE" d="M278,346.5c0.8-3.2-1.3-3-3.4-3c-6.6,0-13.1,0-20.1,0c0-17.1,0-32.7,0-48.6c-3.6-0.3-6.7-0.6-10.9-1
				c2-2.6,3.4-4.4,4.7-6.1c4.5,0,8.9,0,14,0c0,16.4,0,32.3,0,48.7c6.8,0,13.1,0,19.2,0c0.6,2.3,1.1,4.1,1.6,6
				c0.4,0.4,0.7,0.7,1.1,1.1c0.4,5.1-3.9,2.2-5.8,3.4C278.2,346.8,278.1,346.7,278,346.5z"/>
			<path fill="#11FBFE" d="M525.2,342.5c0.4,0.4,0.7,0.7,1.1,1.1c0.4,5.1-3.9,2.2-5.8,3.4c-0.1-0.2-0.2-0.3-0.3-0.5
				c0.8-3.2-1.3-3-3.4-3c-6.6,0-13.1,0-20.1,0c0-17.1,0-32.7,0-48.5c-3.6-0.3-6.7-0.6-10.6-1c1.8-2.5,3.2-4.3,4.5-6.1
				c4.5,0,8.9,0,14,0c0,16.4,0,32.3,0,48.7c6.8,0,13.1,0,19.5,0c0.1,1.4,0.2,2.4,0.4,3.4C524.5,340.8,524.8,341.6,525.2,342.5z"/>
			<path fill="#0CF9FE" d="M136,342.5c0.4,1,0.9,2,1.3,3c-2.4,0.5-4.7,1-7.1,1.6c-0.2-0.2-0.5-0.4-0.7-0.5c-0.4-1.7,0.3-3.8-2.8-4.3
				c-1.1-0.2-2.1-3.6-2.4-5.7c-2.1-12.7-4.2-25.4-5.8-38.1c-0.4-3.4-1.8-4.1-4.8-3.9c-2.7,0.2-5.4,0-7.2,0c1.7-2.4,3.3-4.6,4.9-6.8
				c4.8,0,9.6,0,14.5,0c2.5,16.9,4.9,33.1,7.5,49.2C133.5,338.9,135,340.6,136,342.5z"/>
			<path fill="#0AFAFE" d="M190,337.8c-0.3,1.6-0.6,3.2-1.2,6.2c-1.8,0-5.5,0.8-8.6-0.2c-10.1-3.2-10.2-3.8-10.2-15.1
				c0-11.1,0-22.3,0-33.7c-3.7-0.5-7.2-0.9-11.2-1.4c2.2-2.4,3.7-4.2,5.3-6c4.4,0,8.9,0,13.8,0c0,2.3,0,3.9,0,5.6
				c0,10.7,0,21.3,0,32C178.1,332.3,180.9,338.4,190,337.8z"/>
			<path fill="#0CF9FE" d="M461.4,310.6c-1,5.9-3.3,11.1-8.3,14.9c-0.3-5.8,0.2-11.2-0.9-16.3c-1.7-8.3-7.1-12.8-15.6-13.7
				c-6.3-0.6-12.6-0.7-18.9-1c-1.7-0.1-3.4-0.3-6-0.6c1.9-2.6,3.2-4.4,4.5-6.2c7,0,14-0.1,20.9,0C454,288.1,460.5,294.3,461.4,310.6
				z"/>
			<path fill="#0AFAFE" d="M379.1,346.5c-0.8-1.7-1.6-3.4-2.4-5.1c-0.5,0.1-1,0.3-1.5,0.4c0-15.5,0-30.9,0-46.7
				c-3.5-0.4-6.7-0.9-10.7-1.4c2.1-2.6,3.4-4.3,4.8-6c4.6,0,9.1,0,13.9,0c0,17.2,0,33.4,0,49.7c0,1.7,0.6,3.4,0.9,5.1
				c0.4,0.4,0.7,0.7,1.1,1.1c0.4,5.1-3.9,2.2-5.8,3.4C379.3,346.8,379.2,346.7,379.1,346.5z"/>
			<path fill="#0AFAFE" d="M210.2,342.7c-0.8-0.1-1.6-0.3-2.4-0.4c0-15.8,0-31.5,0-47.5c-3.5-0.2-7-0.4-11.5-0.7
				c2.6-2.8,4.3-4.6,5.9-6.4c4.5,0,8.9,0,14,0c0,14.3,0,28,0,41.8c-1.4,4.3-2.9,8.7-4.3,13C211.4,342.6,210.8,342.6,210.2,342.7z"/>
			<path fill="#0CF9FE" d="M93.3,313.5c-1.6,4.3-3.1,8.5-5.2,14.3c-3.8-10.1-7.2-18.7-10.3-27.4c-1.5-4.1-3.3-6.9-8.4-6
				c-1.5,0.3-3.3-0.6-5-1c1.8-2.2,3.4-4,4.9-5.8c3.3,0,6.7,0.3,10,0c3.3-0.3,4.7,1.2,5.8,4C87.6,299,90.5,306.2,93.3,313.5z"/>
			<path fill="#08F0FC" d="M341.2,297.3c-2.6,1.8-5.2,3.5-8.1,5.5c0-2.5,0-5.1,0-8.6c-12.8,0-25.2,0-38.8,0c2.7-2.9,4.4-4.7,6-6.5
				c13.5,0,27,0,40.9,0C341.2,291.4,341.2,294.4,341.2,297.3z"/>
			<path fill="#14F6FD" d="M564.2,301c-2.1,3.2-4.2,6.5-6.5,10c-2.9-4.2-5.7-7.8-8-11.8c-2.2-3.7-4.8-5.6-9.2-4.9
				c-1.5,0.2-3.2-0.4-5.6-0.7c1.8-2.3,3.2-4.1,4.5-5.8c3,0,6,0.3,9,0c4.1-0.5,6.8,1,8.9,4.6C559.2,295.4,561.9,298.1,564.2,301z"/>
			<path fill="#17FEFE" d="M323.3,346.5c-0.2-1.2-0.3-3.5-0.5-3.5c-4.7-0.4-3.2-3.9-3.2-6.3c-0.1-8.9,0-17.9,0-27c3,0,5.5,0,8,0
				c0,9.7-0.1,19.4,0,29.1c0,1.3,1.1,2.5,1.7,3.8c0.1,0.3,0.3,0.6,0.4,0.9c0.4,4.9-3.6,2.7-5.7,3.7
				C323.7,346.9,323.5,346.7,323.3,346.5z"/>
			<path fill="#0012FE" d="M283,342.5c-0.5-1.8-1-3.6-1.6-6c-6.1,0-12.3,0-19.2,0c0-16.4,0-32.2,0-48.7c-5,0-9.5,0-14,0
				c-0.3-1.9-0.7-3.6,2.4-3.5c4.3,0.2,8.6,0,13.3,0c0,16.3,0,32.4,0,48.9c6.5,0,12.6,0,19,0C283,336.7,283,339.6,283,342.5z"/>
			<path fill="#0012FE" d="M525.2,342.5c-0.3-0.9-0.7-1.7-0.9-2.6c-0.2-0.9-0.2-1.9-0.4-3.4c-6.4,0-12.7,0-19.5,0
				c0-16.4,0-32.2,0-48.7c-5,0-9.5,0-14,0c-0.3-1.9-0.7-3.6,2.4-3.5c4.3,0.2,8.6,0,13.3,0c0,16.3,0,32.4,0,48.9c6.5,0,12.6,0,19,0
				C525.2,336.7,525.2,339.6,525.2,342.5z"/>
			<path fill="#16EAFD" d="M570.8,346.8c-0.9-1.8-1.7-3.7-2.6-5.5c-0.4,0.2-0.9,0.4-1.3,0.6c-1.8-9.3-0.4-17.6,8.5-24.8
				c0,7.7-0.1,14.5,0,21.4c0,1.7,0.5,3.4,0.8,5.2C576.5,348.3,572.9,346.2,570.8,346.8z"/>
			<path fill="#0004FE" d="M461.4,310.6c-0.9-16.4-7.4-22.5-24.2-22.9c-7-0.1-14,0-20.9,0c-0.5-2.1-0.3-3.4,2.5-3.3
				c9.2,0.4,18.5,0.1,27.7,1C458.3,286.7,465.4,299.2,461.4,310.6z"/>
			<path fill="#FEFE1B" d="M278.2,350.4c-0.5,2.2-1,4.3-1.5,6.6c-10.3,2-32.6,0.8-35-2.9c11.6,0,22.8,0,33.1,0
				c1.3-3.2,2.3-5.4,3.2-7.6c0.1,0.2,0.2,0.3,0.3,0.5C278.3,348.1,278.3,349.3,278.2,350.4z"/>
			<path fill="#FEFE1B" d="M520.4,350.4c-0.5,2.2-1,4.3-1.5,6.6c-10.3,2-32.6,0.8-35-2.9c11.6,0,22.8,0,33.1,0
				c1.3-3.2,2.3-5.4,3.2-7.6c0.1,0.2,0.2,0.3,0.3,0.5C520.4,348.1,520.4,349.3,520.4,350.4z"/>
			<path fill="#0CF9FE" d="M435.4,316.5c-0.8,6.3-3.1,7.5-12.9,6.6c0-4.7,0-9.4,0-14.9c2.7,0.3,5.2,0.6,7.7,1c0,2.3,0,4.7,0,7.3
				C432.3,316.5,433.8,316.5,435.4,316.5z"/>
			<path fill="#0004FE" d="M136,342.5c-0.9-1.8-2.4-3.6-2.7-5.5c-2.6-16.2-4.9-32.4-7.5-49.2c-4.9,0-9.7,0-14.5,0
				c1.2-1.1,2.3-3,3.6-3.1c3.8-0.4,7.6-0.2,12.1-0.2c1.4,9.2,2.8,18.5,4.2,27.7C132.7,322.3,134.3,332.4,136,342.5z"/>
			<path fill="#FEFE05" d="M210.2,342.7c0.6,0,1.2-0.1,1.8-0.1c-2.8,6.4-8,10.3-13.8,13.5c-7.1,4-24.6,4-31.5-2.7
				c5.3,0.7,10.8,1.8,16.4,2.1c9,0.6,16.9-2.2,23-9.3C207.2,344.8,208.8,343.8,210.2,342.7z"/>
			<path fill="#16EAFD" d="M596.2,287.7c-1.9,2.8-3.9,5.6-5,7.2c-6.8-0.3-12.7-0.6-18.6-0.8c-0.2-0.4-0.5-0.7-0.7-1.1
				c2.1-1.8,4.2-3.6,6.2-5.5C584.2,287.5,590.2,287.6,596.2,287.7z"/>
			<path fill="#0004FE" d="M341.2,297.3c0-3,0-5.9,0-9.6c-13.9,0-27.4,0-40.9,0c-0.5-2.2-0.2-3.3,2.6-3.3c13,0.1,25.9,0.1,39.9,0.1
				C342.2,289,341.7,293.2,341.2,297.3z"/>
			<path fill="#0004FE" d="M190,337.8c-9.1,0.6-11.9-5.5-11.9-12.5c0-10.7,0-21.3,0-32c0-1.6,0-3.3,0-5.6c-4.9,0-9.4,0-13.8,0
				c0.7-1.1,1.3-3.1,2.1-3.1c4.1-0.3,8.2-0.1,12.8-0.1c0,12.7-0.2,24.9,0.1,37.2c0.2,9,3.2,12.5,12,13.1
				C190.8,335.9,190.4,336.8,190,337.8z"/>
			<path fill="#FEFE1B" d="M303.6,308.7c-5,0-9,0-13.2,0c0-4.5,0-8.6,0-12.8c0.4,0.3,0.7,0.5,0.8,0.7c0.7,8.7,0.7,8.7,9.8,8.8
				c1.1,0,2.3,0.2,3.7,0.3c0,12.1,0,23.9,0,35.8c-0.3,0-0.7,0-1,0.1C303.6,330.8,303.6,320.1,303.6,308.7z"/>
			<path fill="#11FBFE" d="M71.2,346.5c-0.7-1.7-1.4-3.3-2.2-5c-0.5,0.1-1,0.2-1.6,0.3c0.9-5.9,1.8-11.8,2.6-17.7
				c0.3,0,0.5-0.1,0.8-0.1c2,5.5,4,10.9,6,16.4c-0.5,1.1-1.3,2.1-1.4,3.2C75.2,346.6,73.7,347.2,71.2,346.5z"/>
			<path fill="#0004FE" d="M93.3,313.5c-2.8-7.3-5.7-14.5-8.3-21.8c-1-2.9-2.5-4.3-5.8-4c-3.3,0.3-6.6,0-10,0
				c1.3-1.1,2.5-2.9,3.9-3.1c3.8-0.4,7.6-0.1,11.3-0.1c3.3,8.3,6.5,16.3,9.5,24.5C94.4,310.2,93.5,312,93.3,313.5z"/>
			<path fill="#0004FE" d="M384.1,342.5c-0.3-1.7-0.9-3.4-0.9-5.1c-0.1-16.3,0-32.5,0-49.7c-4.8,0-9.3,0-13.9,0
				c-0.5-2.2-0.3-3.5,2.5-3.3c4,0.2,8,0,12.3,0C384.1,304,384.1,323.2,384.1,342.5z"/>
			<path fill="#0004FE" d="M564.2,301c-2.3-2.9-5.1-5.6-6.9-8.7c-2.1-3.6-4.8-5.1-8.9-4.6c-2.9,0.3-6,0.1-9,0
				c-0.2-0.9-0.4-1.9-0.7-3.2c4.8,0,9.5-0.2,14.2,0.1c1.5,0.1,3.3,1.4,4.3,2.6c2.9,3.6,5.5,7.5,8,11.4
				C565.5,299,564.6,300.2,564.2,301z"/>
			<path fill="#FEFE1B" d="M549.8,326.7c-7.4-10.4-14.5-20.5-21.9-30.9C532.6,296.3,550.3,321.2,549.8,326.7z"/>
			<path fill="#FEFE39" d="M480.5,341.2c0-15.1,0-30.3,0-45.4c0.3,0,0.6,0,1,0c0,15.1,0,30.2,0,45.3
				C481.1,341.1,480.8,341.2,480.5,341.2z"/>
			<path fill="#FEFE39" d="M239.6,295.8c0,15.1,0,30.2,0,45.3c-0.3,0-0.6,0-1,0c0-15.1,0-30.2,0-45.3
				C238.9,295.8,239.3,295.8,239.6,295.8z"/>
			<path fill="#0004FE" d="M216.3,329.5c0-13.8,0-27.5,0-41.8c-5.1,0-9.5,0-14,0c-0.5-2.1-0.2-3.5,2.5-3.3c3.9,0.2,7.9,0,12.2,0
				c0,15,0,29.8,0,44.5C217,329.1,216.5,329.3,216.3,329.5z"/>
			<path fill="#FEFE1B" d="M323.7,350.4c-0.6,2.3-0.9,6.5-1.8,6.6c-4.5,0.6-9.2,0.2-13.8,0c-0.4,0-0.6-1.6-1.2-3.2
				c2.9,0,5.2,0,7.4,0c2.1,0,4.3,0,6.1,0c1.1-2.7,2-5,2.9-7.2c0.2,0.2,0.4,0.4,0.6,0.5C323.8,348.1,323.7,349.3,323.7,350.4z"/>
			<path fill="#FEFE1B" d="M70.1,350.4c-2.7,7.2-2.7,7.2-11.2,7.2c-1.8,0-3.6,0-5.5,0c-0.5-5,2.9-3.6,5.2-3.8c2.6-0.2,5.2,0,7,0
				c3.3-1.8,0.1-7.1,5.1-6.7C70.5,348.2,70.3,349.3,70.1,350.4z"/>
			<path fill="#11FBFE" d="M105.6,323.4c2.1,9.2-2,19-7.7,18.6C100.4,336,102.9,330.2,105.6,323.4z"/>
			<path fill="#FEFE1B" d="M426.3,350.4c-0.5,2.2-1,4.3-1.5,6.9c-4.4,0-9.2,0-13.9,0c-0.2-1.9-0.2-1.9,12.3-3.9
				c1-2.4,1.9-4.6,2.9-6.8c0.1,0.2,0.2,0.3,0.4,0.5C426.3,348.1,426.3,349.3,426.3,350.4z"/>
			<path fill="#FEFE1B" d="M379.3,350.4c-0.5,2.2-1,4.3-1.6,6.9c-4.4,0-9.2,0-13.9,0c-0.1-2-0.1-2,12.4-3.9c1-2.4,2-4.6,2.9-6.8
				c0.1,0.2,0.2,0.3,0.3,0.5C379.4,348.1,379.3,349.3,379.3,350.4z"/>
			<path fill="#FEFE1B" d="M129.4,346.5c0.3,0.1,0.5,0.3,0.7,0.5c0.1,1.2,0.1,2.3,0.2,3.5c-0.1,2.1-0.2,4.3-0.3,6.7
				c-4.9,0-9.6,0-14.4,0c-0.1-3.5-0.1-3.5,5-3.5c2.6,0,5.3,0,7.8,0C128.9,351,129.1,348.8,129.4,346.5z"/>
			<path fill="#08F0FC" d="M426,346.5c0.2-1.9,1-3.9-2.3-4.2c-0.8-0.1-1.3-2.6-2-4.1c8.3-1.5,8.3-1.5,10.4,5.5
				c0.4,5-3.8,2.2-5.7,3.4C426.3,346.8,426.1,346.7,426,346.5z"/>
			<path fill="#0012FE" d="M329.1,342.5c-0.6-1.3-1.7-2.5-1.7-3.8c-0.1-9.7,0-19.4,0-29.1c0.6,1,1.7,2,1.7,3
				C329.2,322.6,329.2,332.5,329.1,342.5z"/>
			<path fill="#FEFE1B" d="M102.1,345.2c-2.9,4.3-5,8.4-8.1,11.6c-1.9,1.9-4.9,1.5-5.3-0.5c2.7-3,4.5-5.5,6.8-7.4
				C97.2,347.4,99.5,346.6,102.1,345.2z"/>
			<path fill="#FEFE05" d="M155.6,340.7c-1.8-1.8-2.8-28.9,0-44.5C155.6,311.1,155.6,326.1,155.6,340.7z"/>
			<path fill="#0004FE" d="M596.2,287.7c-6-0.1-12.1-0.2-18.1-0.2c2-1,4-2.6,6.1-2.8c4.1-0.5,8.2-0.1,12.6-0.1
				C596.6,285.6,596.4,286.6,596.2,287.7z"/>
			<path fill="#FEFE05" d="M359.9,296c0,15,0,30,0,45c-0.2,0-0.4,0-0.5,0c0-15,0-30,0-45C359.6,296,359.8,296,359.9,296z"/>
			<path fill="#FEFE05" d="M406.3,340.8c0-14.9,0-29.8,0-44.7c0.2,0,0.4,0,0.6,0c0,14.9,0,29.8,0,44.7
				C406.7,340.8,406.5,340.8,406.3,340.8z"/>
			<path fill="#FEFE05" d="M561.3,358.3c-2.2-0.8-4.6-1.7-6.9-2.5c2.4-0.4,4.8-1.3,7.2-1.2c2.6,0.1,5.1,1,7.7,1.6
				C566.8,356.8,564.3,357.5,561.3,358.3z"/>
			<path fill="#0AFE14" d="M323.7,350.4c0.1-1.1,0.2-2.3,0.2-3.4c2.1-0.9,6.1,1.2,5.7-3.7c0.5,1.8,1.3,3.7,1.4,5.5
				c0,0.5-1.9,1.4-3,1.5C326.6,350.7,325.1,350.4,323.7,350.4z"/>
			<path fill="#0AFE14" d="M70.1,350.4c0.2-1.1,0.4-2.2,0.6-3.4c0.2-0.2,0.3-0.3,0.5-0.5c2.5,0.7,4,0.1,4.3-2.8
				c0.1-1.1,0.9-2.2,1.4-3.2c0.1,1.1,0.2,2.3,0.2,3.4C77.1,350.6,77.1,350.6,70.1,350.4z"/>
			<path fill="#FEFE05" d="M192.4,332.5c0-12.2,0-24.3,0-36.5c0.2,0,0.3,0,0.5,0c0,12.2,0,24.3,0,36.5
				C192.7,332.5,192.6,332.5,192.4,332.5z"/>
			<path fill="#0AFE14" d="M570.8,346.8c2.1-0.6,5.7,1.6,5.4-3.2c0.5,2.1,1,4.2,1.6,6.7c-3.2,0-5.6,0-8.8,0
				C569.7,348.9,570.2,347.8,570.8,346.8z"/>
			<path fill="#0AFE14" d="M130.3,350.5c-0.1-1.2-0.1-2.3-0.2-3.5c2.4-0.5,4.7-1,7.1-1.6c0.4,1.5,0.8,2.9,1.4,5.1
				C135.5,350.5,132.9,350.5,130.3,350.5z"/>
			<path fill="#FEFE05" d="M445.2,332.9c-3.7,1.2-7.4,2.5-11.1,3.5c-0.5,0.1-1.3-1-1.9-1.5c0.5-0.5,1-1.3,1.6-1.4
				c3.7-0.7,7.4-1.2,11-1.8C445,332.1,445.1,332.5,445.2,332.9z"/>
			<path fill="#0AFE14" d="M520.4,350.4c0-1.1,0.1-2.3,0.1-3.4c1.9-1.2,6.2,1.8,5.8-3.4c0.5,2.1,1,4.1,1.6,6.8
				C524.9,350.4,522.6,350.4,520.4,350.4z"/>
			<path fill="#0AFE14" d="M426.4,347c1.9-1.2,6.1,1.6,5.7-3.4c0.5,2.1,1,4.2,1.7,6.7c-3.1,0-5.3,0-7.6,0
				C426.3,349.3,426.3,348.1,426.4,347z"/>
			<path fill="#0AFE14" d="M379.3,350.4c0-1.1,0.1-2.2,0.1-3.4c1.9-1.2,6.2,1.7,5.8-3.4c0.5,2.1,1,4.1,1.6,6.8
				C383.8,350.4,381.6,350.4,379.3,350.4z"/>
			<path fill="#0AFE14" d="M278.2,350.4c0-1.1,0.1-2.2,0.1-3.4c1.9-1.2,6.2,1.7,5.8-3.4c0.5,2.1,1,4.1,1.6,6.8
				C282.8,350.4,280.5,350.4,278.2,350.4z"/>
			<path fill="#0004FE" d="M435.4,316.5c-1.6,0-3.2,0-5.2,0c0-2.6,0-5,0-7.3c0.6,0,1.2,0.1,1.7,0.1c1.1,1.1,2.2,2.2,3.3,3.3
				C435.3,313.9,435.4,315.2,435.4,316.5z"/>
			<path fill="#FEFE05" d="M435.3,312.6c-1.1-1.1-2.2-2.2-3.3-3.3c0.2-1.3,0.3-2.6,0.5-3.9c0.4-0.2,0.8-0.5,1.1-0.7
				c1.2,1.6,2.7,3.1,3.5,4.9C437.4,310.3,435.9,311.6,435.3,312.6z"/>
		</g>
	</g>
</g>
</svg>
