<?xml version="1.0" encoding="utf-8"?>
<!-- Generator: Adobe Illustrator 18.1.1, SVG Export Plug-In . SVG Version: 6.00 Build 0)  -->
<!DOCTYPE svg PUBLIC "-//W3C//DTD SVG 1.1//EN" "http://www.w3.org/Graphics/SVG/1.1/DTD/svg11.dtd">
<svg version="1.1" id="Layer_1" xmlns="http://www.w3.org/2000/svg" xmlns:xlink="http://www.w3.org/1999/xlink" x="0px" y="0px"
	 width="720px" height="720px" viewBox="-345 37.1 720 720" enable-background="new -345 37.1 720 720" xml:space="preserve">
<rect x="-345" y="37.1" fill="#231F20" stroke="#000000" stroke-miterlimit="10" width="720" height="720"/>
<g>
	<path fill="#FFFFFF" d="M106.8,234l42.2,42.7h9.7l89,90h-24l31.8,31.7l-28.8,29.3h22c0,0-16.3,19.3-31.7,19.3
		c-15.3,0-25,2.3-49-21.7s-43.5-43.5-43.5-43.5L113,393.3l-24.8-24.7l-58.8,59h20.3l-39.2,39.2l-85.2-85.2l-11.8,11.8l-25.5-25.2
		l-60.2,60.4h22.8c0,0-18,20.3-43.7,18.3s-48.3-32.7-48.3-32.7l-15.8-15.8l164.7-164.3l42.3,42.6h8.8l51,51L106.8,234z"/>
	<path fill="#FE00FF" d="M115,243.4l4.7-4.5l4.8,4.7l13.2-13.2l46.4,46.3h8.7l89.3,89h-23.3l28.3,28.5l-32.3,32.5h23
		c0,0-6.3,9-23.3,14.7c0,0-7,2.2-21.3,1.2c0,0,15-10.8,16.3-14.8h-23.7l28.7-28.8l-31-31.2h23.3l-90-90h-9L115,243.4z"/>
	<polygon fill="#FE00FF" points="86,367.9 99.5,381.5 53.5,427.7 76.7,427.7 41.5,462.9 28,449.3 49.5,427.7 26.7,427.7 	"/>
	<polygon fill="#FE00FF" points="-84,243.3 -80.3,239.7 -76,244 -61.8,229.8 -14.8,276.7 -5.3,276.7 28.5,310.5 9.8,329.2 
		-42.7,276.7 -51.3,276.7 	"/>
	<path fill="#FE00FF" d="M-173,427.5l59.3-59.4l14,14.1l-45.3,45.5h22.7c0,0-7.7,9-22,13s-22.7,1.7-22.7,1.7l14.5-14.5L-173,427.5z"
		/>
	<polygon fill="#FFFF00" points="-225.3,366.7 -249.3,366.7 -281,398.5 -252,427.7 -227.3,427.7 -257.3,397.7 	"/>
	<polygon fill="#FFFF00" points="-87.3,393.6 -74.7,380.9 -28.8,426.7 -54.3,426.7 	"/>
	<polygon fill="#FFFF00" points="112,393 123.8,381.1 170.5,427.7 144.7,427.7 	"/>
	<polygon fill="#FFFF00" points="105.7,235 100.3,229.7 54.3,275.7 63.7,275.7 	"/>
	<polygon fill="#FFFF00" points="-91.7,234.4 -96,230 -142.7,276.7 -134.3,276.7 	"/>
	
		<rect x="-92.8" y="234.3" transform="matrix(0.7071 0.7071 -0.7071 0.7071 141.8293 130.7542)" fill="#0000FF" width="11.8" height="4.5"/>
	<polygon fill="#0000FF" points="-60.3,230 -56.5,226.1 -6.8,275.7 -15.3,275.7 	"/>
	<polygon fill="#0000FF" points="106,233.7 110,229.7 120.2,239.9 115.7,244.4 	"/>
	<polygon fill="#0000FF" points="138.8,230.3 143.2,225.9 194.2,276.7 183.7,276.7 	"/>
	<polygon fill="#0000FF" points="282.5,367 311.1,395.6 278.8,427.7 254.7,427.7 287,395.4 258.8,367.2 	"/>
	<polygon fill="#0000FF" points="100,381.7 113,394.7 77.3,428.7 54,427 	"/>
	<polygon fill="#0000FF" points="-144.7,427.7 -99.3,383 -87.7,393.7 -121,428 	"/>
	<polygon fill="#FF0E00" points="-79.7,238.7 -74.7,244 -60.3,230 -66,225.4 	"/>
	<polygon fill="#FF0E00" points="120,239 133.7,225.7 138.8,230.3 125,243.4 	"/>
	<polygon fill="#FFFFFF" stroke="#FFFFFF" stroke-width="5" stroke-miterlimit="10" points="-248.8,505.6 -234.3,504.1 
		-221.5,538.9 -206.8,507.2 -192.1,507.2 -184.3,555.2 -180.6,555.2 -180.3,565.2 -195.3,565.2 -203.3,534.3 -211.6,555.2 
		-209.3,555.2 -217.3,567.2 -221.3,567.2 -232.3,543.5 -233.3,545.8 -238.8,535 -242.1,555.2 -239.3,555.2 -242.6,566.2 
		-256.3,566.2 -253.8,554.2 -257.3,554.2 	"/>
	<path fill="#FFFFFF" stroke="#FFFFFF" stroke-width="5" stroke-miterlimit="10" d="M-155.8,507.2h18.5l0.2,38.5
		c0,0,1.8,11.9,20.2,6.4l-1.5-0.9c0,0,3.2-1.3,3.5-10.8s0-33.1,0-33.1h14.5l0.2,44h3.5c0,0-9.4,13.5-30.1,13.5s-26.1-16.2-26.1-16.2
		v-2.2h-3v-39.2H-155.8z"/>
	<polygon fill="#FFFFFF" stroke="#FFFFFF" stroke-width="5" stroke-miterlimit="10" points="-70.8,506.2 -56.8,506.2 -56.8,556.2 
		-33.8,556.2 -33.8,566.2 -68.8,566.2 -68.8,554.2 -70.8,554.2 	"/>
	<polygon fill="#FFFFFF" stroke="#FFFFFF" stroke-width="5" stroke-miterlimit="10" points="-19.8,507.2 21.2,507.2 21.2,520.2 
		8.2,520.2 8.2,554.2 11.2,554.2 11.2,559.2 10.2,559.2 10.2,565.2 -3.8,565.2 -3.8,519.2 -19.8,519.2 	"/>
	<polygon fill="#FFFFFF" stroke="#FFFFFF" stroke-width="5" stroke-miterlimit="10" points="52.7,507.2 64.2,507.2 64.2,554.2 
		69.2,554.2 69.2,564.2 52.2,564.2 52.2,553.2 51.7,553.2 	"/>
	<path fill="#FFFFFF" stroke="#FFFFFF" stroke-width="4" stroke-miterlimit="10" d="M145.9,521.8c-1.8-17-20.2-14.1-20.2-14.1h-31
		v45h3v14h17v-12h-5v-4h11v-9h14.1C134.8,541.7,147.7,538.8,145.9,521.8z M126.2,525c-1.8,9-15.5,5.8-15.5,5.8v-14l4.8-0.2
		C115.4,516.5,127.9,516,126.2,525z"/>
	<polygon fill="#FFFFFF" stroke="#FFFFFF" stroke-width="5" stroke-miterlimit="10" points="174.2,507.2 185.2,507.2 185.2,556.2 
		208.2,556.2 208.2,566.2 174.2,566.2 174.2,552.7 174.2,552.7 	"/>
	<polygon fill="#FFFFFF" stroke="#FFFFFF" stroke-width="5" stroke-miterlimit="10" points="237.7,503.7 248.9,519.5 261.3,503.1 
		281.6,502.8 258.9,535.5 257.1,550 257.2,550.5 257.2,565.2 242.2,565.2 242.2,534.7 221.7,503.2 	"/>
	<g id="SUPkMu.tif">
		<g>
			<path fill="#FDFEFD" d="M123.3,519.5c-0.6,0-1.2-0.1-1.7-0.1c-2.5-0.3-5-0.6-7.7-1c0,5.5,0,10.2,0,14.9
				c9.8,0.9,12.1-0.3,12.9-6.6c-0.1-1.3-0.1-2.6-0.2-3.9c0.7-1,2.1-2.4,1.9-2.9c-0.8-1.8-2.3-3.3-3.5-4.9c-0.4,0.2-0.8,0.5-1.1,0.7
				C123.7,516.9,123.5,518.2,123.3,519.5z M21,553.5c-0.1-0.3-0.3-0.6-0.4-0.9c0-9.9,0.1-19.9,0-29.8c0-1-1.1-2-1.7-3
				c-2.5,0-4.9,0-8,0c0,9.2-0.1,18.1,0,27c0,2.5-1.4,6,3.2,6.3c0.3,0,0.4,2.3,0.5,3.5c-0.9,2.3-1.8,4.5-2.9,7.2c-1.8,0-3.9,0-6.1,0
				c-2.3,0-4.5,0-7.4,0c0.6,1.7,0.9,3.2,1.2,3.2c4.6,0.2,9.3,0.6,13.8,0c0.9-0.1,1.2-4.3,1.8-6.6c1.5,0,3,0.3,4.4,0
				c1.1-0.2,3-1.1,3-1.5C22.3,557.1,21.5,555.3,21,553.5z M123.5,553.7c-2.2-7-2.2-7-10.4-5.5c0.7,1.5,1.2,4,2,4.1
				c3.3,0.3,2.5,2.3,2.3,4.2c-0.9,2.2-1.9,4.4-2.9,6.8c-12.5,2-12.5,2-12.3,3.9c4.7,0,9.5,0,13.9,0c0.6-2.5,1-4.7,1.5-6.9
				c2.2,0,4.5,0,7.6,0C124.6,557.9,124,555.8,123.5,553.7z M-178.3,560.6c2.6,0,5.1,0,8.3,0c-0.6-2.2-1-3.6-1.4-5.1
				c-0.4-1-0.9-2-1.3-3c-1.6-10.1-3.2-20.2-4.8-30.3c-1.4-9.2-2.8-18.5-4.2-27.7c-4.5,0-8.3-0.3-12.1,0.2c-1.3,0.1-2.4,2-3.6,3.1
				c-1.6,2.2-3.1,4.4-4.9,6.8c1.8,0,4.5,0.1,7.2,0c3-0.2,4.3,0.5,4.8,3.9c1.7,12.7,3.7,25.4,5.8,38.1c0.3,2.1,1.3,5.5,2.4,5.7
				c3.1,0.5,2.4,2.6,2.8,4.3c-0.3,2.3-0.6,4.5-0.9,7.3c-2.6,0-5.2,0-7.8,0c-5.2,0-5.2,0-5,3.5c4.8,0,9.5,0,14.4,0
				C-178.5,564.9-178.4,562.8-178.3,560.6z M70.7,560.5c2.3,0,4.5,0,7.5,0c-0.6-2.7-1.1-4.7-1.6-6.8c-0.4-0.4-0.7-0.7-1.1-1.1
				c0-19.3,0-38.5,0-58c-4.4,0-8.4,0.1-12.3,0c-2.8-0.1-3.1,1.2-2.5,3.3c-1.3,1.7-2.7,3.4-4.8,6c4,0.5,7.2,0.9,10.7,1.4
				c0,15.8,0,31.2,0,46.7c0.5-0.1,1-0.3,1.5-0.4c0.8,1.7,1.6,3.4,2.4,5.1c-0.9,2.2-1.9,4.4-2.9,6.8c-12.5,1.9-12.5,1.9-12.4,3.9
				c4.8,0,9.5,0,13.9,0C69.7,564.8,70.2,562.7,70.7,560.5z M-238.5,560.5c6.9,0.3,7,0.2,7-6.5c0-1.1-0.1-2.3-0.2-3.4
				c-2-5.5-4-10.9-6-16.4c-0.3,0-0.5,0.1-0.8,0.1c-0.9,5.9-1.8,11.8-2.6,17.7c0.5-0.1,1-0.2,1.6-0.3c0.7,1.7,1.4,3.3,2.2,5
				c-0.2,0.2-0.3,0.4-0.5,0.5c-5.1-0.4-1.8,4.9-5.1,6.7c-1.8,0-4.4-0.1-7,0c-2.2,0.1-5.7-1.2-5.2,3.8c2,0,3.8,0,5.5,0
				C-241.2,567.7-241.2,567.7-238.5,560.5z M287.6,497.8c0.2-1,0.4-2.1,0.6-3.2c-4.3,0-8.5-0.3-12.6,0.1c-2.1,0.2-4.1,1.9-6.1,2.8
				c-2.1,1.8-4.2,3.6-6.2,5.5c0.2,0.4,0.5,0.7,0.7,1.1c5.9,0.3,11.8,0.5,18.6,0.8C283.7,503.3,285.7,500.5,287.6,497.8z
				 M211.8,560.5c2.3,0,4.5,0,7.5,0c-0.6-2.6-1.1-4.7-1.6-6.8c-0.4-0.4-0.7-0.7-1.1-1.1c0-2.9,0-5.9,0-9.2c-6.4,0-12.5,0-19,0
				c0-16.5,0-32.5,0-48.9c-4.7,0-9,0.1-13.3,0c-3-0.1-2.7,1.6-2.4,3.5c-1.3,1.8-2.6,3.6-4.5,6.1c3.9,0.3,7.1,0.6,10.6,1
				c0,15.9,0,31.5,0,48.5c7,0,13.6,0,20.1,0c2.1,0,4.2-0.2,3.4,3c-0.9,2.2-1.9,4.4-3.2,7.6c-10.4,0-21.5,0-33.1,0
				c2.4,3.7,24.7,4.9,35,2.9C210.8,564.8,211.3,562.7,211.8,560.5z M-30.4,560.5c2.3,0,4.5,0,7.5,0c-0.6-2.6-1.1-4.7-1.6-6.8
				c-0.4-0.4-0.7-0.7-1.1-1.1c0-2.9,0-5.9,0-9.2c-6.4,0-12.5,0-19,0c0-16.5,0-32.6,0-48.9c-4.7,0-9,0.1-13.3,0
				c-3-0.1-2.7,1.6-2.4,3.5c-1.4,1.8-2.7,3.5-4.7,6.1c4.1,0.4,7.3,0.6,10.9,1c0,15.9,0,31.5,0,48.6c7,0,13.6,0,20.1,0
				c2.1,0,4.2-0.2,3.4,3c-0.9,2.2-1.9,4.4-3.2,7.6c-10.4,0-21.5,0-33.1,0c2.4,3.7,24.7,4.9,35,2.9
				C-31.4,564.8-30.9,562.7-30.4,560.5z M262.2,556.9c-0.5,1.1-1.1,2.1-1.8,3.5c3.2,0,5.6,0,8.8,0c-0.6-2.5-1.1-4.6-1.6-6.7
				c-0.3-1.7-0.8-3.4-0.8-5.2c-0.1-6.9,0-13.8,0-21.4c-8.9,7.2-10.2,15.5-8.5,24.8c0.4-0.2,0.9-0.4,1.3-0.6
				C260.5,553.2,261.3,555,262.2,556.9z M230.8,497.8c-1.4,1.7-2.7,3.5-4.5,5.8c2.5,0.3,4.1,0.9,5.6,0.7c4.4-0.7,7.1,1.2,9.2,4.9
				c2.3,4,5.2,7.7,8,11.8c2.3-3.5,4.4-6.7,6.5-10c0.3-0.8,1.2-2,0.9-2.4c-2.5-3.9-5.1-7.7-8-11.4c-1-1.2-2.8-2.5-4.3-2.6
				c-4.7-0.3-9.4-0.1-14.2-0.1C230.4,495.9,230.6,496.9,230.8,497.8z M-8.3,497.8c-1.7,1.8-3.3,3.6-6,6.5c13.6,0,26,0,38.8,0
				c0,3.5,0,6.1,0,8.6c2.9-1.9,5.5-3.7,8.1-5.5c0.5-4.2,1-8.3,1.6-12.9c-14,0-26.9,0.1-39.9-0.1C-8.4,494.5-8.8,495.6-8.3,497.8z
				 M-215.3,523.6c0.3-1.5,1.2-3.3,0.7-4.6c-3-8.1-6.2-16.2-9.5-24.5c-3.7,0-7.5-0.3-11.3,0.1c-1.4,0.2-2.6,2-3.9,3.1
				c-1.5,1.8-3,3.6-4.9,5.8c1.7,0.4,3.5,1.2,5,1c5-0.9,6.9,1.8,8.4,6c3.1,8.7,6.5,17.3,10.3,27.4
				C-218.5,532.1-216.9,527.9-215.3,523.6z M-92.3,539.6c0.2-0.2,0.7-0.4,0.7-0.6c0-14.7,0-29.4,0-44.5c-4.3,0-8.3,0.1-12.2,0
				c-2.8-0.1-3,1.2-2.5,3.3c-1.7,1.8-3.3,3.6-5.9,6.4c4.5,0.3,8,0.5,11.5,0.7c0,16,0,31.7,0,47.5c0.8,0.1,1.6,0.3,2.4,0.4
				c-1.4,1.2-3,2.1-4.1,3.5c-6.1,7.1-14,9.8-23,9.3c-5.5-0.3-11-1.4-16.4-2.1c6.9,6.7,24.3,6.7,31.5,2.7c5.8-3.2,11-7.1,13.8-13.5
				C-95.2,548.3-93.8,544-92.3,539.6z M107.7,497.8c-1.3,1.8-2.6,3.6-4.5,6.2c2.6,0.2,4.3,0.5,6,0.6c6.3,0.3,12.6,0.4,18.9,1
				c8.4,0.9,13.9,5.4,15.6,13.7c1,5.1,0.6,10.5,0.9,16.3c5-3.8,7.3-9,8.3-14.9c4-11.4-3.1-24-14.9-25.2c-9.2-0.9-18.5-0.7-27.7-1
				C107.5,494.4,107.2,495.7,107.7,497.8z M-144.3,497.8c-1.6,1.8-3.2,3.5-5.3,6c4,0.5,7.4,0.9,11.2,1.4c0,11.4,0,22.5,0,33.7
				c0,11.3,0.1,11.8,10.2,15.1c3.1,1,6.7,0.2,8.6,0.2c0.5-2.9,0.8-4.5,1.2-6.2c0.4-1,0.8-1.9,1.2-3c-8.8-0.7-11.7-4.1-12-13.1
				c-0.3-12.3-0.1-24.6-0.1-37.2c-4.6,0-8.7-0.2-12.8,0.1C-143,494.8-143.7,496.7-144.3,497.8z M-5,518.8c0,11.5,0,22.2,0,32.9
				c0.3,0,0.7,0,1-0.1c0-11.9,0-23.8,0-35.8c-1.4-0.1-2.6-0.3-3.7-0.3c-9.1-0.2-9.1-0.1-9.8-8.8c0-0.2-0.4-0.4-0.8-0.7
				c0,4.2,0,8.3,0,12.8C-14,518.8-10.1,518.8-5,518.8z M241.2,536.8c0.4-5.5-17.2-30.4-21.9-30.9
				C226.7,516.3,233.8,526.4,241.2,536.8z M171.9,551.3c0.3,0,0.6,0,1-0.1c0-15.1,0-30.2,0-45.3c-0.3,0-0.6,0-1,0
				C171.9,521,171.9,536.1,171.9,551.3z M-69,505.9c-0.3,0-0.6,0-1-0.1c0,15.1,0,30.2,0,45.3c0.3,0,0.6,0,1,0
				C-69,536.1-69,521-69,505.9z M-203,533.5c-2.8,6.7-5.2,12.6-7.7,18.6C-204.9,552.5-200.9,542.7-203,533.5z M-206.5,555.3
				c-2.6,1.4-4.9,2.2-6.7,3.6c-2.3,1.9-4.1,4.4-6.8,7.4c0.5,2,3.5,2.5,5.3,0.5C-211.5,563.7-209.4,559.6-206.5,555.3z M-153,550.8
				c0-14.7,0-29.6,0-44.5C-155.8,522-154.8,549.1-153,550.8z M51.3,506.1c-0.2,0-0.4,0-0.5,0c0,15,0,30,0,45c0.2,0,0.4,0,0.5,0
				C51.3,536.1,51.3,521.1,51.3,506.1z M97.7,550.9c0.2,0,0.4,0,0.6,0c0-14.9,0-29.8,0-44.7c-0.2,0-0.4,0-0.6,0
				C97.7,521.1,97.7,536,97.7,550.9z M252.7,568.4c3-0.8,5.5-1.5,8-2.2c-2.6-0.6-5.1-1.5-7.7-1.6c-2.4-0.1-4.8,0.8-7.2,1.2
				C248.1,566.7,250.4,567.6,252.7,568.4z M-116.2,542.6c0.2,0,0.3,0,0.5,0c0-12.2,0-24.3,0-36.5c-0.2,0-0.3,0-0.5,0
				C-116.2,518.3-116.2,530.5-116.2,542.6z M136.6,543c-0.1-0.4-0.3-0.8-0.4-1.2c-3.7,0.6-7.4,1.1-11,1.8c-0.6,0.1-1.1,0.9-1.6,1.4
				c0.7,0.5,1.5,1.6,1.9,1.5C129.3,545.5,133,544.2,136.6,543z"/>
			<path fill="#11FBFE" d="M-30.6,556.6c0.8-3.2-1.3-3-3.4-3c-6.6,0-13.1,0-20.1,0c0-17.1,0-32.7,0-48.6c-3.6-0.3-6.7-0.6-10.9-1
				c2-2.6,3.4-4.4,4.7-6.1c4.5,0,8.9,0,14,0c0,16.4,0,32.3,0,48.7c6.8,0,13.1,0,19.2,0c0.6,2.3,1.1,4.1,1.6,6
				c0.4,0.4,0.7,0.7,1.1,1.1c0.4,5.1-3.9,2.2-5.8,3.4C-30.4,556.9-30.5,556.8-30.6,556.6z"/>
			<path fill="#11FBFE" d="M216.6,552.6c0.4,0.4,0.7,0.7,1.1,1.1c0.4,5.1-3.9,2.2-5.8,3.4c-0.1-0.2-0.2-0.3-0.3-0.5
				c0.8-3.2-1.3-3-3.4-3c-6.6,0-13.1,0-20.1,0c0-17.1,0-32.7,0-48.5c-3.6-0.3-6.7-0.6-10.6-1c1.8-2.5,3.2-4.3,4.5-6.1
				c4.5,0,8.9,0,14,0c0,16.4,0,32.3,0,48.7c6.8,0,13.1,0,19.5,0c0.1,1.4,0.2,2.4,0.4,3.4C215.9,550.9,216.2,551.7,216.6,552.6z"/>
			<path fill="#0CF9FE" d="M-172.6,552.6c0.4,1,0.9,2,1.3,3c-2.4,0.5-4.7,1-7.1,1.6c-0.2-0.2-0.5-0.4-0.7-0.5
				c-0.4-1.7,0.3-3.8-2.8-4.3c-1.1-0.2-2.1-3.6-2.4-5.7c-2.1-12.7-4.2-25.4-5.8-38.1c-0.4-3.4-1.8-4.1-4.8-3.9c-2.7,0.2-5.4,0-7.2,0
				c1.7-2.4,3.3-4.6,4.9-6.8c4.8,0,9.6,0,14.5,0c2.5,16.9,4.9,33.1,7.5,49.2C-175.1,549-173.6,550.7-172.6,552.6z"/>
			<path fill="#0AFAFE" d="M-118.6,547.9c-0.3,1.6-0.6,3.2-1.2,6.2c-1.8,0-5.5,0.8-8.6-0.2c-10.1-3.2-10.2-3.8-10.2-15.1
				c0-11.1,0-22.3,0-33.7c-3.7-0.5-7.2-0.9-11.2-1.4c2.2-2.4,3.7-4.2,5.3-6c4.4,0,8.9,0,13.8,0c0,2.3,0,3.9,0,5.6
				c0,10.7,0,21.3,0,32C-130.5,542.4-127.7,548.5-118.6,547.9z"/>
			<path fill="#0CF9FE" d="M152.8,520.7c-1,5.9-3.3,11.1-8.3,14.9c-0.3-5.8,0.2-11.2-0.9-16.3c-1.7-8.3-7.1-12.8-15.6-13.7
				c-6.3-0.6-12.6-0.7-18.9-1c-1.7-0.1-3.4-0.3-6-0.6c1.9-2.6,3.2-4.4,4.5-6.2c7,0,14-0.1,20.9,0
				C145.4,498.2,151.9,504.4,152.8,520.7z"/>
			<path fill="#0AFAFE" d="M70.5,556.6c-0.8-1.7-1.6-3.4-2.4-5.1c-0.5,0.1-1,0.3-1.5,0.4c0-15.5,0-30.9,0-46.7
				c-3.5-0.4-6.7-0.9-10.7-1.4c2.1-2.6,3.4-4.3,4.8-6c4.6,0,9.1,0,13.9,0c0,17.2,0,33.4,0,49.7c0,1.7,0.6,3.4,0.9,5.1
				c0.4,0.4,0.7,0.7,1.1,1.1c0.4,5.1-3.9,2.2-5.8,3.4C70.7,556.9,70.6,556.8,70.5,556.6z"/>
			<path fill="#0AFAFE" d="M-98.4,552.8c-0.8-0.1-1.6-0.3-2.4-0.4c0-15.8,0-31.5,0-47.5c-3.5-0.2-7-0.4-11.5-0.7
				c2.6-2.8,4.3-4.6,5.9-6.4c4.5,0,8.9,0,14,0c0,14.3,0,28,0,41.8c-1.4,4.3-2.9,8.7-4.3,13C-97.2,552.7-97.8,552.7-98.4,552.8z"/>
			<path fill="#0CF9FE" d="M-215.3,523.6c-1.6,4.3-3.1,8.5-5.2,14.3c-3.8-10.1-7.2-18.7-10.3-27.4c-1.5-4.1-3.3-6.9-8.4-6
				c-1.5,0.3-3.3-0.6-5-1c1.8-2.2,3.4-4,4.9-5.8c3.3,0,6.7,0.3,10,0s4.7,1.2,5.8,4C-221,509.1-218.1,516.3-215.3,523.6z"/>
			<path fill="#08F0FC" d="M32.6,507.4c-2.6,1.8-5.2,3.5-8.1,5.5c0-2.5,0-5.1,0-8.6c-12.8,0-25.2,0-38.8,0c2.7-2.9,4.4-4.7,6-6.5
				c13.5,0,27,0,40.9,0C32.6,501.5,32.6,504.5,32.6,507.4z"/>
			<path fill="#14F6FD" d="M255.6,511.1c-2.1,3.2-4.2,6.5-6.5,10c-2.9-4.2-5.7-7.8-8-11.8c-2.2-3.7-4.8-5.6-9.2-4.9
				c-1.5,0.2-3.2-0.4-5.6-0.7c1.8-2.3,3.2-4.1,4.5-5.8c3,0,6,0.3,9,0c4.1-0.5,6.8,1,8.9,4.6C250.6,505.5,253.3,508.2,255.6,511.1z"
				/>
			<path fill="#17FEFE" d="M14.7,556.6c-0.2-1.2-0.3-3.5-0.5-3.5c-4.7-0.4-3.2-3.9-3.2-6.3c-0.1-8.9,0-17.9,0-27c3,0,5.5,0,8,0
				c0,9.7-0.1,19.4,0,29.1c0,1.3,1.1,2.5,1.7,3.8c0.1,0.3,0.3,0.6,0.4,0.9c0.4,4.9-3.6,2.7-5.7,3.7C15.1,557,14.9,556.8,14.7,556.6z
				"/>
			<path fill="#0012FE" d="M-25.6,552.6c-0.5-1.8-1-3.6-1.6-6c-6.1,0-12.3,0-19.2,0c0-16.4,0-32.2,0-48.7c-5,0-9.5,0-14,0
				c-0.3-1.9-0.7-3.6,2.4-3.5c4.3,0.2,8.6,0,13.3,0c0,16.3,0,32.4,0,48.9c6.5,0,12.6,0,19,0C-25.6,546.8-25.6,549.7-25.6,552.6z"/>
			<path fill="#0012FE" d="M216.6,552.6c-0.3-0.9-0.7-1.7-0.9-2.6c-0.2-0.9-0.2-1.9-0.4-3.4c-6.4,0-12.7,0-19.5,0
				c0-16.4,0-32.2,0-48.7c-5,0-9.5,0-14,0c-0.3-1.9-0.7-3.6,2.4-3.5c4.3,0.2,8.6,0,13.3,0c0,16.3,0,32.4,0,48.9c6.5,0,12.6,0,19,0
				C216.6,546.8,216.6,549.7,216.6,552.6z"/>
			<path fill="#16EAFD" d="M262.2,556.9c-0.9-1.8-1.7-3.7-2.6-5.5c-0.4,0.2-0.9,0.4-1.3,0.6c-1.8-9.3-0.4-17.6,8.5-24.8
				c0,7.7-0.1,14.5,0,21.4c0,1.7,0.5,3.4,0.8,5.2C267.9,558.4,264.3,556.3,262.2,556.9z"/>
			<path fill="#0004FE" d="M152.8,520.7c-0.9-16.4-7.4-22.5-24.2-22.9c-7-0.1-14,0-20.9,0c-0.5-2.1-0.3-3.4,2.5-3.3
				c9.2,0.4,18.5,0.1,27.7,1C149.7,496.8,156.8,509.3,152.8,520.7z"/>
			<path fill="#FEFE1B" d="M-30.4,560.5c-0.5,2.2-1,4.3-1.5,6.6c-10.3,2-32.6,0.8-35-2.9c11.6,0,22.8,0,33.1,0
				c1.3-3.2,2.3-5.4,3.2-7.6c0.1,0.2,0.2,0.3,0.3,0.5C-30.3,558.2-30.3,559.4-30.4,560.5z"/>
			<path fill="#FEFE1B" d="M211.8,560.5c-0.5,2.2-1,4.3-1.5,6.6c-10.3,2-32.6,0.8-35-2.9c11.6,0,22.8,0,33.1,0
				c1.3-3.2,2.3-5.4,3.2-7.6c0.1,0.2,0.2,0.3,0.3,0.5C211.8,558.2,211.8,559.4,211.8,560.5z"/>
			<path fill="#0CF9FE" d="M126.8,526.6c-0.8,6.3-3.1,7.5-12.9,6.6c0-4.7,0-9.4,0-14.9c2.7,0.3,5.2,0.6,7.7,1c0,2.3,0,4.7,0,7.3
				C123.7,526.6,125.2,526.6,126.8,526.6z"/>
			<path fill="#0004FE" d="M-172.6,552.6c-0.9-1.8-2.4-3.6-2.7-5.5c-2.6-16.2-4.9-32.4-7.5-49.2c-4.9,0-9.7,0-14.5,0
				c1.2-1.1,2.3-3,3.6-3.1c3.8-0.4,7.6-0.2,12.1-0.2c1.4,9.2,2.8,18.5,4.2,27.7C-175.9,532.4-174.3,542.5-172.6,552.6z"/>
			<path fill="#FEFE05" d="M-98.4,552.8c0.6,0,1.2-0.1,1.8-0.1c-2.8,6.4-8,10.3-13.8,13.5c-7.1,4-24.6,4-31.5-2.7
				c5.3,0.7,10.8,1.8,16.4,2.1c9,0.6,16.9-2.2,23-9.3C-101.4,554.9-99.8,553.9-98.4,552.8z"/>
			<path fill="#16EAFD" d="M287.6,497.8c-1.9,2.8-3.9,5.6-5,7.2c-6.8-0.3-12.7-0.6-18.6-0.8c-0.2-0.4-0.5-0.7-0.7-1.1
				c2.1-1.8,4.2-3.6,6.2-5.5C275.6,497.6,281.6,497.7,287.6,497.8z"/>
			<path fill="#0004FE" d="M32.6,507.4c0-3,0-5.9,0-9.6c-13.9,0-27.4,0-40.9,0c-0.5-2.2-0.2-3.3,2.6-3.3c13,0.1,25.9,0.1,39.9,0.1
				C33.6,499.1,33.1,503.3,32.6,507.4z"/>
			<path fill="#0004FE" d="M-118.6,547.9c-9.1,0.6-11.9-5.5-11.9-12.5c0-10.7,0-21.3,0-32c0-1.6,0-3.3,0-5.6c-4.9,0-9.4,0-13.8,0
				c0.7-1.1,1.3-3.1,2.1-3.1c4.1-0.3,8.2-0.1,12.8-0.1c0,12.7-0.2,24.9,0.1,37.2c0.2,9,3.2,12.5,12,13.1
				C-117.8,546-118.2,546.9-118.6,547.9z"/>
			<path fill="#FEFE1B" d="M-5,518.8c-5,0-9,0-13.2,0c0-4.5,0-8.6,0-12.8c0.4,0.3,0.7,0.5,0.8,0.7c0.7,8.7,0.7,8.7,9.8,8.8
				c1.1,0,2.3,0.2,3.7,0.3c0,12.1,0,23.9,0,35.8c-0.3,0-0.7,0-1,0.1C-5,540.9-5,530.2-5,518.8z"/>
			<path fill="#11FBFE" d="M-237.4,556.6c-0.7-1.7-1.4-3.3-2.2-5c-0.5,0.1-1,0.2-1.6,0.3c0.9-5.9,1.8-11.8,2.6-17.7
				c0.3,0,0.5-0.1,0.8-0.1c2,5.5,4,10.9,6,16.4c-0.5,1.1-1.3,2.1-1.4,3.2C-233.4,556.7-234.9,557.3-237.4,556.6z"/>
			<path fill="#0004FE" d="M-215.3,523.6c-2.8-7.3-5.7-14.5-8.3-21.8c-1-2.9-2.5-4.3-5.8-4s-6.6,0-10,0c1.3-1.1,2.5-2.9,3.9-3.1
				c3.8-0.4,7.6-0.1,11.3-0.1c3.3,8.3,6.5,16.3,9.5,24.5C-214.2,520.3-215.1,522.1-215.3,523.6z"/>
			<path fill="#0004FE" d="M75.5,552.6c-0.3-1.7-0.9-3.4-0.9-5.1c-0.1-16.3,0-32.5,0-49.7c-4.8,0-9.3,0-13.9,0
				c-0.5-2.2-0.3-3.5,2.5-3.3c4,0.2,8,0,12.3,0C75.5,514.1,75.5,533.3,75.5,552.6z"/>
			<path fill="#0004FE" d="M255.6,511.1c-2.3-2.9-5.1-5.6-6.9-8.7c-2.1-3.6-4.8-5.1-8.9-4.6c-2.9,0.3-6,0.1-9,0
				c-0.2-0.9-0.4-1.9-0.7-3.2c4.8,0,9.5-0.2,14.2,0.1c1.5,0.1,3.3,1.4,4.3,2.6c2.9,3.6,5.5,7.5,8,11.4
				C256.9,509.1,256,510.3,255.6,511.1z"/>
			<path fill="#FEFE1B" d="M241.2,536.8c-7.4-10.4-14.5-20.5-21.9-30.9C224,506.4,241.7,531.3,241.2,536.8z"/>
			<path fill="#FEFE39" d="M171.9,551.3c0-15.1,0-30.3,0-45.4c0.3,0,0.6,0,1,0c0,15.1,0,30.2,0,45.3
				C172.5,551.2,172.2,551.3,171.9,551.3z"/>
			<path fill="#FEFE39" d="M-69,505.9c0,15.1,0,30.2,0,45.3c-0.3,0-0.6,0-1,0c0-15.1,0-30.2,0-45.3C-69.7,505.9-69.3,505.9-69,505.9
				z"/>
			<path fill="#0004FE" d="M-92.3,539.6c0-13.8,0-27.5,0-41.8c-5.1,0-9.5,0-14,0c-0.5-2.1-0.2-3.5,2.5-3.3c3.9,0.2,7.9,0,12.2,0
				c0,15,0,29.8,0,44.5C-91.6,539.2-92.1,539.4-92.3,539.6z"/>
			<path fill="#FEFE1B" d="M15.1,560.5c-0.6,2.3-0.9,6.5-1.8,6.6c-4.5,0.6-9.2,0.2-13.8,0c-0.4,0-0.6-1.6-1.2-3.2c2.9,0,5.2,0,7.4,0
				c2.1,0,4.3,0,6.1,0c1.1-2.7,2-5,2.9-7.2c0.2,0.2,0.4,0.4,0.6,0.5C15.2,558.2,15.1,559.4,15.1,560.5z"/>
			<path fill="#FEFE1B" d="M-238.5,560.5c-2.7,7.2-2.7,7.2-11.2,7.2c-1.8,0-3.6,0-5.5,0c-0.5-5,2.9-3.6,5.2-3.8c2.6-0.2,5.2,0,7,0
				c3.3-1.8,0.1-7.1,5.1-6.7C-238.1,558.3-238.3,559.4-238.5,560.5z"/>
			<path fill="#11FBFE" d="M-203,533.5c2.1,9.2-2,19-7.7,18.6C-208.2,546.1-205.7,540.3-203,533.5z"/>
			<path fill="#FEFE1B" d="M117.7,560.5c-0.5,2.2-1,4.3-1.5,6.9c-4.4,0-9.2,0-13.9,0c-0.2-1.9-0.2-1.9,12.3-3.9
				c1-2.4,1.9-4.6,2.9-6.8c0.1,0.2,0.2,0.3,0.4,0.5C117.7,558.2,117.7,559.4,117.7,560.5z"/>
			<path fill="#FEFE1B" d="M70.7,560.5c-0.5,2.2-1,4.3-1.6,6.9c-4.4,0-9.2,0-13.9,0c-0.1-2-0.1-2,12.4-3.9c1-2.4,2-4.6,2.9-6.8
				c0.1,0.2,0.2,0.3,0.3,0.5C70.8,558.2,70.7,559.4,70.7,560.5z"/>
			<path fill="#FEFE1B" d="M-179.2,556.6c0.3,0.1,0.5,0.3,0.7,0.5c0.1,1.2,0.1,2.3,0.2,3.5c-0.1,2.1-0.2,4.3-0.3,6.7
				c-4.9,0-9.6,0-14.4,0c-0.1-3.5-0.1-3.5,5-3.5c2.6,0,5.3,0,7.8,0C-179.7,561.1-179.5,558.9-179.2,556.6z"/>
			<path fill="#08F0FC" d="M117.4,556.6c0.2-1.9,1-3.9-2.3-4.2c-0.8-0.1-1.3-2.6-2-4.1c8.3-1.5,8.3-1.5,10.4,5.5
				c0.4,5-3.8,2.2-5.7,3.4C117.7,556.9,117.5,556.8,117.4,556.6z"/>
			<path fill="#0012FE" d="M20.5,552.6c-0.6-1.3-1.7-2.5-1.7-3.8c-0.1-9.7,0-19.4,0-29.1c0.6,1,1.7,2,1.7,3
				C20.6,532.7,20.6,542.6,20.5,552.6z"/>
			<path fill="#FEFE1B" d="M-206.5,555.3c-2.9,4.3-5,8.4-8.1,11.6c-1.9,1.9-4.9,1.5-5.3-0.5c2.7-3,4.5-5.5,6.8-7.4
				C-211.4,557.5-209.1,556.7-206.5,555.3z"/>
			<path fill="#FEFE05" d="M-153,550.8c-1.8-1.8-2.8-28.9,0-44.5C-153,521.2-153,536.2-153,550.8z"/>
			<path fill="#0004FE" d="M287.6,497.8c-6-0.1-12.1-0.2-18.1-0.2c2-1,4-2.6,6.1-2.8c4.1-0.5,8.2-0.1,12.6-0.1
				C288,495.7,287.8,496.7,287.6,497.8z"/>
			<path fill="#FEFE05" d="M51.3,506.1c0,15,0,30,0,45c-0.2,0-0.4,0-0.5,0c0-15,0-30,0-45C51,506.1,51.2,506.1,51.3,506.1z"/>
			<path fill="#FEFE05" d="M97.7,550.9c0-14.9,0-29.8,0-44.7c0.2,0,0.4,0,0.6,0c0,14.9,0,29.8,0,44.7
				C98.1,550.9,97.9,550.9,97.7,550.9z"/>
			<path fill="#FEFE05" d="M252.7,568.4c-2.2-0.8-4.6-1.7-6.9-2.5c2.4-0.4,4.8-1.3,7.2-1.2c2.6,0.1,5.1,1,7.7,1.6
				C258.2,566.9,255.7,567.6,252.7,568.4z"/>
			<path fill="#0AFE14" d="M15.1,560.5c0.1-1.1,0.2-2.3,0.2-3.4c2.1-0.9,6.1,1.2,5.7-3.7c0.5,1.8,1.3,3.7,1.4,5.5
				c0,0.5-1.9,1.4-3,1.5C18,560.8,16.5,560.5,15.1,560.5z"/>
			<path fill="#0AFE14" d="M-238.5,560.5c0.2-1.1,0.4-2.2,0.6-3.4c0.2-0.2,0.3-0.3,0.5-0.5c2.5,0.7,4,0.1,4.3-2.8
				c0.1-1.1,0.9-2.2,1.4-3.2c0.1,1.1,0.2,2.3,0.2,3.4C-231.5,560.7-231.5,560.7-238.5,560.5z"/>
			<path fill="#FEFE05" d="M-116.2,542.6c0-12.2,0-24.3,0-36.5c0.2,0,0.3,0,0.5,0c0,12.2,0,24.3,0,36.5
				C-115.9,542.6-116,542.6-116.2,542.6z"/>
			<path fill="#0AFE14" d="M262.2,556.9c2.1-0.6,5.7,1.6,5.4-3.2c0.5,2.1,1,4.2,1.6,6.7c-3.2,0-5.6,0-8.8,0
				C261.1,559,261.6,557.9,262.2,556.9z"/>
			<path fill="#0AFE14" d="M-178.3,560.6c-0.1-1.2-0.1-2.3-0.2-3.5c2.4-0.5,4.7-1,7.1-1.6c0.4,1.5,0.8,2.9,1.4,5.1
				C-173.1,560.6-175.7,560.6-178.3,560.6z"/>
			<path fill="#FEFE05" d="M136.6,543c-3.7,1.2-7.4,2.5-11.1,3.5c-0.5,0.1-1.3-1-1.9-1.5c0.5-0.5,1-1.3,1.6-1.4
				c3.7-0.7,7.4-1.2,11-1.8C136.4,542.2,136.5,542.6,136.6,543z"/>
			<path fill="#0AFE14" d="M211.8,560.5c0-1.1,0.1-2.3,0.1-3.4c1.9-1.2,6.2,1.8,5.8-3.4c0.5,2.1,1,4.1,1.6,6.8
				C216.3,560.5,214,560.5,211.8,560.5z"/>
			<path fill="#0AFE14" d="M117.8,557.1c1.9-1.2,6.1,1.6,5.7-3.4c0.5,2.1,1,4.2,1.7,6.7c-3.1,0-5.3,0-7.6,0
				C117.7,559.4,117.7,558.2,117.8,557.1z"/>
			<path fill="#0AFE14" d="M70.7,560.5c0-1.1,0.1-2.2,0.1-3.4c1.9-1.2,6.2,1.7,5.8-3.4c0.5,2.1,1,4.1,1.6,6.8
				C75.2,560.5,73,560.5,70.7,560.5z"/>
			<path fill="#0AFE14" d="M-30.4,560.5c0-1.1,0.1-2.2,0.1-3.4c1.9-1.2,6.2,1.7,5.8-3.4c0.5,2.1,1,4.1,1.6,6.8
				C-25.8,560.5-28.1,560.5-30.4,560.5z"/>
			<path fill="#0004FE" d="M126.8,526.6c-1.6,0-3.2,0-5.2,0c0-2.6,0-5,0-7.3c0.6,0,1.2,0.1,1.7,0.1c1.1,1.1,2.2,2.2,3.3,3.3
				C126.7,524,126.8,525.3,126.8,526.6z"/>
			<path fill="#FEFE05" d="M126.7,522.7c-1.1-1.1-2.2-2.2-3.3-3.3c0.2-1.3,0.3-2.6,0.5-3.9c0.4-0.2,0.8-0.5,1.1-0.7
				c1.2,1.6,2.7,3.1,3.5,4.9C128.8,520.4,127.3,521.7,126.7,522.7z"/>
		</g>
	</g>
</g>
</svg>
