<svg xmlns="http://www.w3.org/2000/svg" width="720" height="720" viewBox="40 209 720 720" enable-background="new 40 209 720 720"><path stroke="#000" stroke-miterlimit="10" d="M40 209h720v720h-720z"/><path fill="#fff" d="M491.8 405.8l42.2 42.7h9.7l89 90h-24l31.8 31.7-28.8 29.3h22s-16.3 19.3-31.7 19.3c-15.3 0-25 2.3-49-21.7l-43.5-43.5-11.5 11.5-24.8-24.7-58.8 59h20.3l-39.2 39.2-85.2-85.2-11.8 11.8-25.5-25.2-60.2 60.4h22.8s-18 20.3-43.7 18.3l-48.3-32.7-15.8-15.8 164.7-164.3 42.3 42.6h8.8l51 51 97.2-93.7z"/><path fill="#FE00FF" d="M500 415.2l4.7-4.5 4.8 4.7 13.2-13.2 46.4 46.3h8.7l89.3 89h-23.3l28.2 28.5-32.3 32.5h23s-6.3 9-23.3 14.7c0 0-7 2.2-21.3 1.2 0 0 15-10.8 16.3-14.8h-23.7l28.7-28.8-31-31.2h23.3l-90-90h-9l-32.7-34.4zM471 539.7l13.5 13.6-46 46.2h23.1l-35.1 35.2-13.5-13.6 21.5-21.6h-22.9zM301 415.1l3.6-3.6 4.4 4.3 14.1-14.2 47 46.9h9.5l33.9 33.8-18.7 18.7-52.6-52.5h-8.6zM211.9 599.3l59.3-59.4 14 14.1-45.3 45.5h22.7s-7.7 9-22 13l-22.7 1.7 14.5-14.5-20.5-.4z"/><path fill="#ff0" d="M159.6 538.5h-24l-31.7 31.8 29 29.2h24.7l-30-30zM297.6 565.4l12.6-12.7 45.9 45.8h-25.5zM497 564.8l11.8-11.9 46.7 46.6h-25.9zM490.6 406.8l-5.4-5.3-46 46h9.4zM293.2 406.2l-4.2-4.4-46.8 46.7h8.4z"/><path fill="#00f" d="M295.415 402.655l8.344 8.344-3.182 3.182-8.344-8.344zM324.6 401.8l3.9-3.9 49.6 49.6h-8.5zM491 405.5l4-4 10.1 10.2-4.5 4.5zM523.8 402.1l4.3-4.4 51 50.8h-10.5zM667.4 538.8l28.6 28.6-32.2 32.1h-24.2l32.3-32.3-28.1-28.2zM485 553.5l13 13-35.8 34-23.2-1.7zM240.2 599.5l45.4-44.7 11.6 10.7-33.2 34.3z"/><path fill="#FF0E00" d="M305.2 410.5l5 5.3 14.4-14-5.6-4.6zM505 410.8l13.6-13.3 5.2 4.6-13.8 13.1z"/><path fill="#fff" stroke="#fff" stroke-width="5" stroke-miterlimit="10" d="M136.1 677.4l14.5-1.5 12.8 34.8 14.7-31.7h14.7l7.8 48h3.7l.3 10h-15l-8-30.9-8.3 20.9h2.3l-8 12h-4l-11-23.7-1 2.3-5.5-10.8-3.3 20.2h2.8l-3.3 11h-13.7l2.5-12h-3.5zM229.1 679h18.5l.2 38.5s1.8 11.9 20.2 6.4l-1.5-.9s3.2-1.3 3.5-10.8c.3-9.5 0-33.1 0-33.1h14.5l.2 44h3.5s-9.4 13.5-30.1 13.5l-26.1-16.2v-2.2h-3v-39.2h.1zM314.1 678h14v50h23v10h-35v-12h-2zM365.1 679h41v13h-13v34h3v5h-1v6h-14v-46h-16zM437.6 679h11.5v47h5v10h-17v-11h-.5z"/><path fill="#fff" stroke="#fff" stroke-width="4" stroke-miterlimit="10" d="M530.8 693.6c-1.8-17-20.2-14.1-20.2-14.1h-31v45h3v14h17v-12h-5v-4h11v-9h14.1c.1 0 12.9-2.9 11.1-19.9zm-19.7 3.2c-1.8 9-15.5 5.8-15.5 5.8v-14l4.8-.2c0-.1 12.4-.6 10.7 8.4z"/><path fill="#fff" stroke="#fff" stroke-width="5" stroke-miterlimit="10" d="M559.1 679h11v49h23v10h-34v-13.5zM622.6 675.5l11.2 15.8 12.4-16.4 20.3-.3-22.7 32.7-1.8 14.5.1.5v14.7h-15v-30.5l-20.5-31.5z"/><g><path fill="#FDFEFD" d="M508.2 691.3c-.6 0-1.2-.1-1.7-.1-2.5-.3-5-.6-7.7-1v14.9c9.8.9 12.1-.3 12.9-6.6l-.2-3.9c.7-1 2.1-2.4 1.9-2.9-.8-1.8-2.3-3.3-3.5-4.9-.4.2-.8.5-1.1.7-.2 1.2-.3 2.5-.6 3.8zm-102.2 34l-.4-.9c0-9.9.1-19.9 0-29.8 0-1-1.1-2-1.7-3h-8c0 9.2-.1 18.1 0 27 0 2.5-1.4 6 3.2 6.3.3 0 .4 2.3.5 3.5-.9 2.3-1.8 4.5-2.9 7.2h-13.5c.6 1.7.9 3.2 1.2 3.2 4.6.2 9.3.6 13.8 0 .9-.1 1.2-4.3 1.8-6.6 1.5 0 3 .3 4.4 0 1.1-.2 3-1.1 3-1.5-.2-1.8-.9-3.6-1.4-5.4zm102.5.2c-2.2-7-2.2-7-10.4-5.5.7 1.5 1.2 4 2 4.1 3.3.3 2.5 2.3 2.3 4.2-.9 2.2-1.9 4.4-2.9 6.8-12.5 2-12.5 2-12.3 3.9h13.9c.6-2.5 1-4.7 1.5-6.9h7.6c-.6-2.4-1.2-4.5-1.7-6.6zm-301.9 6.9h8.3c-.6-2.2-1-3.6-1.4-5.1l-1.3-3-4.8-30.3-4.2-27.7c-4.5 0-8.3-.3-12.1.2-1.3.1-2.4 2-3.6 3.1-1.6 2.2-3.1 4.4-4.9 6.8 1.8 0 4.5.1 7.2 0 3-.2 4.3.5 4.8 3.9 1.7 12.7 3.7 25.4 5.8 38.1.3 2.1 1.3 5.5 2.4 5.7 3.1.5 2.4 2.6 2.8 4.3-.3 2.3-.6 4.5-.9 7.3h-7.8c-5.2 0-5.2 0-5 3.5h14.4c.1-2.5.2-4.6.3-6.8zm249-.1h7.5c-.6-2.7-1.1-4.7-1.6-6.8l-1.1-1.1v-58c-4.4 0-8.4.1-12.3 0-2.8-.1-3.1 1.2-2.5 3.3-1.3 1.7-2.7 3.4-4.8 6 4 .5 7.2.9 10.7 1.4v46.7l1.5-.4 2.4 5.1c-.9 2.2-1.9 4.4-2.9 6.8-12.5 1.9-12.5 1.9-12.4 3.9h13.9c.6-2.6 1.1-4.7 1.6-6.9zm-309.2 0c6.9.3 7 .2 7-6.5 0-1.1-.1-2.3-.2-3.4l-6-16.4-.8.1c-.9 5.9-1.8 11.8-2.6 17.7.5-.1 1-.2 1.6-.3.7 1.7 1.4 3.3 2.2 5-.2.2-.3.4-.5.5-5.1-.4-1.8 4.9-5.1 6.7-1.8 0-4.4-.1-7 0-2.2.1-5.7-1.2-5.2 3.8h5.5c8.5 0 8.5 0 11.1-7.2zm526.1-62.7c.2-1 .4-2.1.6-3.2-4.3 0-8.5-.3-12.6.1-2.1.2-4.1 1.9-6.1 2.8-2.1 1.8-4.2 3.6-6.2 5.5l.7 1.1c5.9.3 11.8.5 18.6.8 1.1-1.6 3.1-4.4 5-7.1zm-75.7 62.7h7.5c-.6-2.6-1.1-4.7-1.6-6.8l-1.1-1.1v-9.2h-19v-48.9c-4.7 0-9 .1-13.3 0-3-.1-2.7 1.6-2.4 3.5-1.3 1.8-2.6 3.6-4.5 6.1 3.9.3 7.1.6 10.6 1v48.5h20.1c2.1 0 4.2-.2 3.4 3-.9 2.2-1.9 4.4-3.2 7.6h-33.1c2.4 3.7 24.7 4.9 35 2.9.6-2.3 1-4.4 1.6-6.6zm-242.2 0h7.5c-.6-2.6-1.1-4.7-1.6-6.8l-1.1-1.1v-9.2h-19v-48.9c-4.7 0-9 .1-13.3 0-3-.1-2.7 1.6-2.4 3.5-1.4 1.8-2.7 3.5-4.7 6.1 4.1.4 7.3.6 10.9 1v48.6h20.1c2.1 0 4.2-.2 3.4 3-.9 2.2-1.9 4.4-3.2 7.6h-33.1c2.4 3.7 24.7 4.9 35 2.9.5-2.4 1-4.5 1.5-6.7zm292.5-3.6c-.5 1.1-1.1 2.1-1.8 3.5h8.8c-.6-2.5-1.1-4.6-1.6-6.7-.3-1.7-.8-3.4-.8-5.2-.1-6.9 0-13.8 0-21.4-8.9 7.2-10.2 15.5-8.5 24.8l1.3-.6 2.6 5.6zm-31.3-59.1c-1.4 1.7-2.7 3.5-4.5 5.8 2.5.3 4.1.9 5.6.7 4.4-.7 7.1 1.2 9.2 4.9 2.3 4 5.2 7.7 8 11.8 2.3-3.5 4.4-6.7 6.5-10 .3-.8 1.2-2 .9-2.4-2.5-3.9-5.1-7.7-8-11.4-1-1.2-2.8-2.5-4.3-2.6-4.7-.3-9.4-.1-14.2-.1.3 1.4.5 2.4.8 3.3zm-239.2 0c-1.7 1.8-3.3 3.6-6 6.5h38.8v8.6c2.9-1.9 5.5-3.7 8.1-5.5.5-4.2 1-8.3 1.6-12.9-14 0-26.9.1-39.9-.1-2.6.1-3.1 1.2-2.6 3.4zm-207 25.8c.3-1.5 1.2-3.3.7-4.6-3-8.1-6.2-16.2-9.5-24.5-3.7 0-7.5-.3-11.3.1-1.4.2-2.6 2-3.9 3.1-1.5 1.8-3 3.6-4.9 5.8 1.7.4 3.5 1.2 5 1 5-.9 6.9 1.8 8.4 6 3.1 8.7 6.5 17.3 10.3 27.4 2-5.8 3.6-10 5.2-14.3zm123 16c.2-.2.7-.4.7-.6v-44.5c-4.3 0-8.3.1-12.2 0-2.8-.1-3 1.2-2.5 3.3-1.7 1.8-3.3 3.6-5.9 6.4 4.5.3 8 .5 11.5.7v47.5l2.4.4c-1.4 1.2-3 2.1-4.1 3.5-6.1 7.1-14 9.8-23 9.3-5.5-.3-11-1.4-16.4-2.1 6.9 6.7 24.3 6.7 31.5 2.7 5.8-3.2 11-7.1 13.8-13.5 1.4-4.4 2.7-8.7 4.2-13.1zm200-41.8c-1.3 1.8-2.6 3.6-4.5 6.2 2.6.2 4.3.5 6 .6 6.3.3 12.6.4 18.9 1 8.4.9 13.9 5.4 15.6 13.7 1 5.1.6 10.5.9 16.3 5-3.8 7.3-9 8.3-14.9 4-11.4-3.1-24-14.9-25.2-9.2-.9-18.5-.7-27.7-1-2.7-.1-3.1 1.2-2.6 3.3zm-252 0c-1.6 1.8-3.2 3.5-5.3 6 4 .5 7.4.9 11.2 1.4v33.7c0 11.3.1 11.8 10.2 15.1 3.1 1 6.7.2 8.6.2.5-2.9.8-4.5 1.2-6.2.4-1 .8-1.9 1.2-3-8.8-.7-11.7-4.1-12-13.1-.3-12.3-.1-24.6-.1-37.2-4.6 0-8.7-.2-12.8.1-.9 0-1.6 1.9-2.2 3zm139.4 21v32.9c.3 0 .7 0 1-.1v-35.8c-1.4-.1-2.6-.3-3.7-.3-9.1-.2-9.1-.1-9.8-8.8 0-.2-.4-.4-.8-.7v12.8h13.3zm246.1 18c.4-5.5-17.2-30.4-21.9-30.9 7.4 10.4 14.6 20.5 21.9 30.9zm-69.3 14.5c.3 0 .6 0 1-.1v-45.3h-1v45.4zm-240.8-45.4c-.3 0-.6 0-1-.1v45.3h1v-45.2zm-134.1 27.6c-2.8 6.7-5.2 12.6-7.7 18.6 5.8.4 9.8-9.4 7.7-18.6zm-3.5 21.8c-2.6 1.4-4.9 2.2-6.7 3.6-2.3 1.9-4.1 4.4-6.8 7.4.5 2 3.5 2.5 5.3.5 3.2-3.1 5.3-7.2 8.2-11.5zm53.5-4.5v-44.5c-2.8 15.7-1.8 42.8 0 44.5zm204.3-44.7h-.5v45h.5v-45zm46.4 44.8h.6v-44.7h-.6v44.7zm155 17.5c3-.8 5.5-1.5 8-2.2-2.6-.6-5.1-1.5-7.7-1.6-2.4-.1-4.8.8-7.2 1.2 2.3.9 4.6 1.8 6.9 2.6zm-368.8-25.8h.5v-36.5h-.5v36.5zm252.7.4l-.4-1.2c-3.7.6-7.4 1.1-11 1.8-.6.1-1.1.9-1.6 1.4.7.5 1.5 1.6 1.9 1.5 3.8-1 7.6-2.3 11.1-3.5z"/><path fill="#11FBFE" d="M354.4 728.4c.8-3.2-1.3-3-3.4-3h-20.1v-48.6c-3.6-.3-6.7-.6-10.9-1 2-2.6 3.4-4.4 4.7-6.1h14v48.7h19.2c.6 2.3 1.1 4.1 1.6 6l1.1 1.1c.4 5.1-3.9 2.2-5.8 3.4-.2-.2-.3-.3-.4-.5zM601.5 724.4l1.1 1.1c.4 5.1-3.9 2.2-5.8 3.4l-.3-.5c.8-3.2-1.3-3-3.4-3h-20.1v-48.5c-3.6-.3-6.7-.6-10.6-1 1.8-2.5 3.2-4.3 4.5-6.1h14v48.7h19.5c.1 1.4.2 2.4.4 3.4 0 .8.3 1.6.7 2.5z"/><path fill="#0CF9FE" d="M212.3 724.4l1.3 3c-2.4.5-4.7 1-7.1 1.6-.2-.2-.5-.4-.7-.5-.4-1.7.3-3.8-2.8-4.3-1.1-.2-2.1-3.6-2.4-5.7-2.1-12.7-4.2-25.4-5.8-38.1-.4-3.4-1.8-4.1-4.8-3.9-2.7.2-5.4 0-7.2 0 1.7-2.4 3.3-4.6 4.9-6.8h14.5c2.5 16.9 4.9 33.1 7.5 49.2.1 1.9 1.6 3.6 2.6 5.5z"/><path fill="#0AFAFE" d="M266.4 719.7c-.3 1.6-.6 3.2-1.2 6.2-1.8 0-5.5.8-8.6-.2-10.1-3.2-10.2-3.8-10.2-15.1v-33.7c-3.7-.5-7.2-.9-11.2-1.4 2.2-2.4 3.7-4.2 5.3-6h13.8v37.6c.1 7.1 2.9 13.2 12.1 12.6z"/><path fill="#0CF9FE" d="M537.8 692.5c-1 5.9-3.3 11.1-8.3 14.9-.3-5.8.2-11.2-.9-16.3-1.7-8.3-7.1-12.8-15.6-13.7-6.3-.6-12.6-.7-18.9-1-1.7-.1-3.4-.3-6-.6 1.9-2.6 3.2-4.4 4.5-6.2 7 0 14-.1 20.9 0 16.8.4 23.3 6.6 24.3 22.9z"/><path fill="#0AFAFE" d="M455.5 728.4l-2.4-5.1-1.5.4v-46.7c-3.5-.4-6.7-.9-10.7-1.4 2.1-2.6 3.4-4.3 4.8-6h13.9v49.7c0 1.7.6 3.4.9 5.1l1.1 1.1c.4 5.1-3.9 2.2-5.8 3.4-.2-.2-.2-.3-.3-.5zM286.5 724.6l-2.4-.4v-47.5c-3.5-.2-7-.4-11.5-.7 2.6-2.8 4.3-4.6 5.9-6.4h14v41.8l-4.3 13c-.4.1-1.1.1-1.7.2z"/><path fill="#0CF9FE" d="M169.6 695.4c-1.6 4.3-3.1 8.5-5.2 14.3-3.8-10.1-7.2-18.7-10.3-27.4-1.5-4.1-3.3-6.9-8.4-6-1.5.3-3.3-.6-5-1 1.8-2.2 3.4-4 4.9-5.8 3.3 0 6.7.3 10 0s4.7 1.2 5.8 4c2.5 7.4 5.4 14.6 8.2 21.9z"/><path fill="#08F0FC" d="M417.6 679.2c-2.6 1.8-5.2 3.5-8.1 5.5v-8.6h-38.8c2.7-2.9 4.4-4.7 6-6.5h40.9v9.6z"/><path fill="#14F6FD" d="M640.5 682.9c-2.1 3.2-4.2 6.5-6.5 10-2.9-4.2-5.7-7.8-8-11.8-2.2-3.7-4.8-5.6-9.2-4.9-1.5.2-3.2-.4-5.6-.7 1.8-2.3 3.2-4.1 4.5-5.8 3 0 6 .3 9 0 4.1-.5 6.8 1 8.9 4.6 1.9 3 4.6 5.7 6.9 8.6z"/><path fill="#17FEFE" d="M399.6 728.4c-.2-1.2-.3-3.5-.5-3.5-4.7-.4-3.2-3.9-3.2-6.3-.1-8.9 0-17.9 0-27h8c0 9.7-.1 19.4 0 29.1 0 1.3 1.1 2.5 1.7 3.8l.4.9c.4 4.9-3.6 2.7-5.7 3.7-.2-.3-.4-.5-.7-.7z"/><path fill="#0012FE" d="M359.4 724.4c-.5-1.8-1-3.6-1.6-6h-19.2v-48.7h-14c-.3-1.9-.7-3.6 2.4-3.5 4.3.2 8.6 0 13.3 0v48.9h19c.1 3.5.1 6.4.1 9.3zM601.5 724.4c-.3-.9-.7-1.7-.9-2.6-.2-.9-.2-1.9-.4-3.4h-19.5v-48.7h-14c-.3-1.9-.7-3.6 2.4-3.5 4.3.2 8.6 0 13.3 0v48.9h19c.1 3.5.1 6.4.1 9.3z"/><path fill="#16EAFD" d="M647.1 728.7l-2.6-5.5-1.3.6c-1.8-9.3-.4-17.6 8.5-24.8 0 7.7-.1 14.5 0 21.4 0 1.7.5 3.4.8 5.2.3 4.6-3.3 2.5-5.4 3.1z"/><path fill="#0004FE" d="M537.8 692.5c-.9-16.4-7.4-22.5-24.2-22.9-7-.1-14 0-20.9 0-.5-2.1-.3-3.4 2.5-3.3 9.2.4 18.5.1 27.7 1 11.7 1.3 18.9 13.8 14.9 25.2z"/><path fill="#FEFE1B" d="M354.6 732.3c-.5 2.2-1 4.3-1.5 6.6-10.3 2-32.6.8-35-2.9h33.1c1.3-3.2 2.3-5.4 3.2-7.6l.3.5c-.1 1.1-.1 2.3-.1 3.4zM596.8 732.3c-.5 2.2-1 4.3-1.5 6.6-10.3 2-32.6.8-35-2.9h33.1c1.3-3.2 2.3-5.4 3.2-7.6l.3.5c-.1 1.1-.1 2.3-.1 3.4z"/><path fill="#0CF9FE" d="M511.8 698.4c-.8 6.3-3.1 7.5-12.9 6.6v-14.9c2.7.3 5.2.6 7.7 1v7.3h5.2z"/><path fill="#0004FE" d="M212.3 724.4c-.9-1.8-2.4-3.6-2.7-5.5-2.6-16.2-4.9-32.4-7.5-49.2h-14.5c1.2-1.1 2.3-3 3.6-3.1 3.8-.4 7.6-.2 12.1-.2l4.2 27.7c1.5 10.1 3.1 20.2 4.8 30.3z"/><path fill="#FEFE05" d="M286.5 724.6l1.8-.1c-2.8 6.4-8 10.3-13.8 13.5-7.1 4-24.6 4-31.5-2.7 5.3.7 10.8 1.8 16.4 2.1 9 .6 16.9-2.2 23-9.3 1.1-1.4 2.7-2.4 4.1-3.5z"/><path fill="#16EAFD" d="M672.5 669.6c-1.9 2.8-3.9 5.6-5 7.2-6.8-.3-12.7-.6-18.6-.8l-.7-1.1c2.1-1.8 4.2-3.6 6.2-5.5 6.1 0 12.1.1 18.1.2z"/><path fill="#0004FE" d="M417.6 679.2v-9.6h-40.9c-.5-2.2-.2-3.3 2.6-3.3 13 .1 25.9.1 39.9.1-.6 4.5-1.1 8.7-1.6 12.8zM266.4 719.7c-9.1.6-11.9-5.5-11.9-12.5v-37.6h-13.8c.7-1.1 1.3-3.1 2.1-3.1 4.1-.3 8.2-.1 12.8-.1 0 12.7-.2 24.9.1 37.2.2 9 3.2 12.5 12 13.1-.6 1.1-.9 2-1.3 3z"/><path fill="#FEFE1B" d="M380 690.6h-13.2v-12.8c.4.3.7.5.8.7.7 8.7.7 8.7 9.8 8.8 1.1 0 2.3.2 3.7.3v35.8c-.3 0-.7 0-1 .1-.1-10.8-.1-21.5-.1-32.9z"/><path fill="#11FBFE" d="M147.5 728.4c-.7-1.7-1.4-3.3-2.2-5-.5.1-1 .2-1.6.3.9-5.9 1.8-11.8 2.6-17.7l.8-.1 6 16.4c-.5 1.1-1.3 2.1-1.4 3.2-.2 3-1.7 3.6-4.2 2.9z"/><path fill="#0004FE" d="M169.6 695.4c-2.8-7.3-5.7-14.5-8.3-21.8-1-2.9-2.5-4.3-5.8-4h-10c1.3-1.1 2.5-2.9 3.9-3.1 3.8-.4 7.6-.1 11.3-.1 3.3 8.3 6.5 16.3 9.5 24.5.6 1.2-.4 3-.6 4.5zM460.5 724.4c-.3-1.7-.9-3.4-.9-5.1-.1-16.3 0-32.5 0-49.7h-13.9c-.5-2.2-.3-3.5 2.5-3.3 4 .2 8 0 12.3 0v58.1zM640.5 682.9c-2.3-2.9-5.1-5.6-6.9-8.7-2.1-3.6-4.8-5.1-8.9-4.6-2.9.3-6 .1-9 0-.2-.9-.4-1.9-.7-3.2 4.8 0 9.5-.2 14.2.1 1.5.1 3.3 1.4 4.3 2.6 2.9 3.6 5.5 7.5 8 11.4.3.4-.6 1.6-1 2.4z"/><path fill="#FEFE1B" d="M626.1 708.6l-21.9-30.9c4.7.5 22.4 25.4 21.9 30.9z"/><path fill="#FEFE39" d="M556.8 723.1v-45.4h1v45.3l-1 .1zM316 677.7v45.3h-1v-45.3h1z"/><path fill="#0004FE" d="M292.6 711.4v-41.8h-14c-.5-2.1-.2-3.5 2.5-3.3 3.9.2 7.9 0 12.2 0v44.5c.1.2-.4.4-.7.6z"/><path fill="#FEFE1B" d="M400.1 732.3c-.6 2.3-.9 6.5-1.8 6.6-4.5.6-9.2.2-13.8 0-.4 0-.6-1.6-1.2-3.2h13.5l2.9-7.2c.2.2.4.4.6.5-.2 1-.2 2.2-.2 3.3zM146.4 732.3c-2.7 7.2-2.7 7.2-11.2 7.2h-5.5c-.5-5 2.9-3.6 5.2-3.8 2.6-.2 5.2 0 7 0 3.3-1.8.1-7.1 5.1-6.7l-.6 3.3z"/><path fill="#11FBFE" d="M181.9 705.3c2.1 9.2-2 19-7.7 18.6 2.6-6 5-11.8 7.7-18.6z"/><path fill="#FEFE1B" d="M502.6 732.3c-.5 2.2-1 4.3-1.5 6.9h-13.9c-.2-1.9-.2-1.9 12.3-3.9 1-2.4 1.9-4.6 2.9-6.8.1.2.2.3.4.5-.2 1-.2 2.2-.2 3.3zM455.6 732.3c-.5 2.2-1 4.3-1.6 6.9h-13.9c-.1-2-.1-2 12.4-3.9 1-2.4 2-4.6 2.9-6.8l.3.5c.1 1-.1 2.2-.1 3.3zM205.7 728.4c.3.1.5.3.7.5l.2 3.5c-.1 2.1-.2 4.3-.3 6.7h-14.4c-.1-3.5-.1-3.5 5-3.5h7.8c.5-2.7.7-4.9 1-7.2z"/><path fill="#08F0FC" d="M502.4 728.4c.2-1.9 1-3.9-2.3-4.2-.8-.1-1.3-2.6-2-4.1 8.3-1.5 8.3-1.5 10.4 5.5.4 5-3.8 2.2-5.7 3.4-.2-.3-.3-.4-.4-.6z"/><path fill="#0012FE" d="M405.5 724.4c-.6-1.3-1.7-2.5-1.7-3.8-.1-9.7 0-19.4 0-29.1.6 1 1.7 2 1.7 3 .1 10 .1 19.9 0 29.9z"/><path fill="#FEFE1B" d="M178.4 727.1c-2.9 4.3-5 8.4-8.1 11.6-1.9 1.9-4.9 1.5-5.3-.5 2.7-3 4.5-5.5 6.8-7.4 1.7-1.5 4-2.3 6.6-3.7z"/><path fill="#FEFE05" d="M231.9 722.6c-1.8-1.8-2.8-28.9 0-44.5v44.5z"/><path fill="#0004FE" d="M672.5 669.6c-6-.1-12.1-.2-18.1-.2 2-1 4-2.6 6.1-2.8 4.1-.5 8.2-.1 12.6-.1-.2 1-.3 2-.6 3.1z"/><path fill="#FEFE05" d="M436.2 677.9v45h-.5v-45h.5zM482.6 722.7v-44.7h.6v44.7h-.6zM637.6 740.2c-2.2-.8-4.6-1.7-6.9-2.5 2.4-.4 4.8-1.3 7.2-1.2 2.6.1 5.1 1 7.7 1.6-2.5.6-5 1.3-8 2.1z"/><path fill="#0AFE14" d="M400.1 732.3c.1-1.1.2-2.3.2-3.4 2.1-.9 6.1 1.2 5.7-3.7.5 1.8 1.3 3.7 1.4 5.5 0 .5-1.9 1.4-3 1.5-1.4.4-2.9.1-4.3.1zM146.4 732.3c.2-1.1.4-2.2.6-3.4l.5-.5c2.5.7 4 .1 4.3-2.8.1-1.1.9-2.2 1.4-3.2.1 1.1.2 2.3.2 3.4 0 6.7 0 6.7-7 6.5z"/><path fill="#FEFE05" d="M268.8 714.4v-36.5h.5v36.5h-.5z"/><path fill="#0AFE14" d="M647.1 728.7c2.1-.6 5.7 1.6 5.4-3.2.5 2.1 1 4.2 1.6 6.7h-8.8c.7-1.4 1.2-2.5 1.8-3.5zM206.6 732.4l-.2-3.5c2.4-.5 4.7-1 7.1-1.6.4 1.5.8 2.9 1.4 5.1h-8.3z"/><path fill="#FEFE05" d="M521.5 714.8c-3.7 1.2-7.4 2.5-11.1 3.5-.5.1-1.3-1-1.9-1.5.5-.5 1-1.3 1.6-1.4 3.7-.7 7.4-1.2 11-1.8.2.4.4.8.4 1.2z"/><path fill="#0AFE14" d="M596.8 732.3l.1-3.4c1.9-1.2 6.2 1.8 5.8-3.4.5 2.1 1 4.1 1.6 6.8h-7.5zM502.8 728.9c1.9-1.2 6.1 1.6 5.7-3.4.5 2.1 1 4.2 1.7 6.7h-7.6c0-1 0-2.2.2-3.3zM455.6 732.3c0-1.1.1-2.2.1-3.4 1.9-1.2 6.2 1.7 5.8-3.4.5 2.1 1 4.1 1.6 6.8h-7.5zM354.6 732.3c0-1.1.1-2.2.1-3.4 1.9-1.2 6.2 1.7 5.8-3.4.5 2.1 1 4.1 1.6 6.8h-7.5z"/><path fill="#0004FE" d="M511.8 698.4h-5.2v-7.3c.6 0 1.2.1 1.7.1l3.3 3.3.2 3.9z"/><path fill="#FEFE05" d="M511.6 694.5l-3.3-3.3.5-3.9c.4-.2.8-.5 1.1-.7 1.2 1.6 2.7 3.1 3.5 4.9.4.7-1.2 2-1.8 3z"/></g></svg>