<?xml version="1.0" encoding="utf-8"?>
<!-- Generator: Adobe Illustrator 18.1.1, SVG Export Plug-In . SVG Version: 6.00 Build 0)  -->
<!DOCTYPE svg PUBLIC "-//W3C//DTD SVG 1.1//EN" "http://www.w3.org/Graphics/SVG/1.1/DTD/svg11.dtd">
<svg version="1.1" id="Capa_1" xmlns="http://www.w3.org/2000/svg" xmlns:xlink="http://www.w3.org/1999/xlink" x="0px" y="0px"
	 width="792px" height="792px" viewBox="-215 0 792 792" enable-background="new -215 0 792 792" xml:space="preserve">
<path fill="#FFFFFF" d="M181,0C-37.7,0-215,177.3-215,396s177.3,396,396,396s396-177.3,396-396S399.7,0,181,0z M350.5,305.4
	c0.2,3.9,0.3,7.9,0.3,11.9c0,121.5-88,261.5-248.9,261.6c-49.4,0-95.4-15.4-134.1-42c6.9,0.8,13.8,1.3,20.9,1.3
	c40.9,0.1,78.6-14.8,108.6-39.6c-38.2-0.9-70.6-28-81.7-65.1c5.4,1.2,10.8,1.8,16.5,1.8c7.9,0.1,15.7-1,23-3.1
	c-40-8.9-70.2-46.8-70.2-92.1c0-0.4,0-0.8,0-1.2c11.8,7.1,25.2,11.5,39.6,12.1C1,334-14.4,305.2-14.4,272.8
	c0-17.1,4.3-33.1,11.8-46.8c43.2,57,107.6,94.9,180.4,99.6c-1.5-6.8-2.3-13.8-2.3-21.1c0-51.2,39.2-92,87.5-91.2
	c25.2,0.4,48,12,63.9,30.1c19.9-3.8,38.6-11.1,55.5-21.4c-6.6,21.4-20.4,39.2-38.5,50.3c17.8-2,34.6-6.7,50.3-13.8
	C382.4,276.7,367.6,292.7,350.5,305.4z"/>
</svg>
