<svg xmlns="http://www.w3.org/2000/svg" width="792" height="792" viewBox="-215 0 792 792" enable-background="new -215 0 792 792"><path fill="#fff" d="M181 0c-218.7 0-396 177.3-396 396s177.3 396 396 396 396-177.3 396-396-177.3-396-396-396zm169.5 305.4c.2 3.9.3 7.9.3 11.9 0 121.5-88 261.5-248.9 261.6-49.4 0-95.4-15.4-134.1-42 6.9.8 13.8 1.3 20.9 1.3 40.9.1 78.6-14.8 108.6-39.6-38.2-.9-70.6-28-81.7-65.1 5.4 1.2 10.8 1.8 16.5 1.8 7.9.1 15.7-1 23-3.1-40-8.9-70.2-46.8-70.2-92.1v-1.2c11.8 7.1 25.2 11.5 39.6 12.1-23.5-17-38.9-45.8-38.9-78.2 0-17.1 4.3-33.1 11.8-46.8 43.2 57 107.6 94.9 180.4 99.6-1.5-6.8-2.3-13.8-2.3-21.1 0-51.2 39.2-92 87.5-91.2 25.2.4 48 12 63.9 30.1 19.9-3.8 38.6-11.1 55.5-21.4-6.6 21.4-20.4 39.2-38.5 50.3 17.8-2 34.6-6.7 50.3-13.8-11.8 18.2-26.6 34.2-43.7 46.9z"/></svg>